<svg xmlns="http://www.w3.org/2000/svg" xml:space="preserve" viewBox="0 0 91 91">
  <path d="M35.961 57.859h19.816a2.513 2.513 0 0 0 2.512-2.514V35.527a2.512 2.512 0 0 0-2.512-2.512H35.961a2.512 2.512 0 0 0-2.512 2.512v19.818a2.513 2.513 0 0 0 2.512 2.514zm2.514-19.818h14.791v14.793H38.475V38.041z"/>
  <path d="M88.076 27.383c1.387 0 2.514-1.125 2.514-2.512s-1.127-2.512-2.514-2.512H77.264V16.63a2.513 2.513 0 0 0-2.512-2.514h-5.109V3.303a2.513 2.513 0 1 0-5.026 0v10.814H49.074V3.303a2.513 2.513 0 1 0-5.026 0v10.814H28.51V3.303a2.513 2.513 0 1 0-5.026 0v10.814h-6.508a2.513 2.513 0 0 0-2.512 2.514v5.729H3.648a2.513 2.513 0 1 0 0 5.024h10.816v15.539H3.648a2.513 2.513 0 1 0 0 5.026h10.816V63.49H3.648a2.513 2.513 0 1 0 0 5.026h10.816v5.412a2.513 2.513 0 0 0 2.512 2.514h6.508v10.82a2.512 2.512 0 0 0 5.026 0v-10.82h15.539v10.82a2.512 2.512 0 0 0 5.026 0v-10.82h15.543v10.82a2.512 2.512 0 0 0 5.026 0v-10.83c4.217-.088 7.621-3.535 7.621-7.768v-.148h10.813a2.514 2.514 0 0 0 0-5.026H77.264V47.947h10.813a2.514 2.514 0 0 0 0-5.026H77.264V27.383h10.812zM72.24 24.832c0 .014-.004.025-.004.039s.004.025.004.039v20.484c0 .014-.004.025-.004.039s.004.025.004.039v20.492c0 .014-.004.025-.004.039s.004.025.004.039v2.621a2.76 2.76 0 0 1-2.762 2.752H19.49V19.143h52.75v5.689z"/>
</svg>
