<svg xmlns="http://www.w3.org/2000/svg" fill="currentColor" stroke="currentColor" viewBox="-5 -5 110 110">
  <path d="M93.941 41.711a3.6 3.6 0 0 1-2.559 1.059c-.93 0-1.851-.36-2.558-1.059-8.012-8.031-18.352-13.352-29.47-15.281v12.238c7.942 1.75 15.149 5.691 20.989 11.531a3.614 3.614 0 0 1-2.559 6.168 3.6 3.6 0 0 1-2.558-1.059c-4.47-4.46-9.899-7.57-15.871-9.172v11.97a24.8 24.8 0 0 1 7.828 5.218 3.62 3.62 0 0 1 .02 5.121c-.712.711-1.641 1.07-2.571 1.07s-1.84-.35-2.55-1.05a17.5 17.5 0 0 0-4.212-3.05c-1.66 2.6-4.558 4.339-7.86 4.339s-6.21-1.738-7.87-4.34c-1.531.8-2.95 1.8-4.192 3.04-.71.71-1.629 1.058-2.558 1.058s-1.852-.352-2.559-1.059a3.62 3.62 0 0 1 .012-5.12c2.219-2.22 4.898-3.99 7.82-5.22v-11.98a35.24 35.24 0 0 0-15.879 9.172 3.6 3.6 0 0 1-2.558 1.059 3.614 3.614 0 0 1-2.559-6.168c5.852-5.852 13.059-9.79 21-11.531v-12.22c-11.09 1.911-21.449 7.22-29.48 15.263a3.6 3.6 0 0 1-2.559 1.058 3.6 3.6 0 0 1-2.558-1.058 3.63 3.63 0 0 1 0-5.121c9.39-9.39 21.578-15.47 34.602-17.441v-4.059c0-5.148 4.191-9.34 9.351-9.34s9.34 4.192 9.34 9.34v4.04c13.051 1.988 25.238 8.077 34.59 17.46a3.62 3.62 0 0 1 0 5.121zM57.27 91.238a10.17 10.17 0 0 1-7.262 3.012 10.18 10.18 0 0 1-7.27-3.012 10.2 10.2 0 0 1-3.01-7.262c0-2.738 1.07-5.328 3.01-7.27 1.942-1.94 4.52-3.01 7.27-3.01s5.32 1.07 7.262 3.01c4.012 4.012 4.012 10.532 0 14.532z"/>
</svg>
