<svg xmlns="http://www.w3.org/2000/svg" viewBox="0 0 100 125" xml:space="preserve">
  <path fill="none" d="M0 0h100v100H0z"/>
  <path fill="currentColor" d="M72.895 2.087c-13.844 0-25.107 11.262-25.107 25.107S59.05 52.3 72.895 52.3C86.738 52.3 98 41.038 98 27.194S86.738 2.087 72.895 2.087m0 43.502c-10.144 0-18.395-8.253-18.395-18.395S62.751 8.798 72.895 8.798s18.394 8.253 18.394 18.395-8.252 18.396-18.394 18.396"/>
  <path fill="currentColor" d="M82.29 23.167h-5.369v-5.369a4.03 4.03 0 0 0-4.027-4.027 4.03 4.03 0 0 0-4.027 4.027v5.369h-5.369c-2.223 0-4.027 1.804-4.027 4.027s1.804 4.027 4.027 4.027h5.369v5.369a4.03 4.03 0 0 0 4.027 4.027 4.03 4.03 0 0 0 4.027-4.027v-5.37h5.369a4.027 4.027 0 0 0 0-8.053"/>
  <path fill="currentColor" d="M94.593 51.619a3.354 3.354 0 0 0-3.353 3.342H9.361V16.233c0-4.071 3.311-7.382 7.382-7.382H46.16a3.356 3.356 0 1 0 0-6.711H16.744C8.973 2.14 2.65 8.463 2.65 16.233V63.14c0 7.77 6.323 14.093 14.093 14.093h22.122l-6.259 12.625h-7.789a4.03 4.03 0 0 0-4.027 4.027 4.03 4.03 0 0 0 4.027 4.027h48.32a4.03 4.03 0 0 0 4.027-4.027 4.03 4.03 0 0 0-4.027-4.027H67.78l-6.259-12.625h22.334c7.77 0 14.093-6.323 14.093-14.093v-8.166a3.354 3.354 0 0 0-3.355-3.355m-54.495 38.24 6.259-12.625h7.675l6.259 12.625zm51.14-26.718c0 4.071-3.311 7.382-7.382 7.382H16.744c-4.071 0-7.382-3.311-7.382-7.382v-.126h81.876z"/>
</svg>
