<svg xmlns="http://www.w3.org/2000/svg" version="1.1" viewBox="-5.0 -5.0 110.0 110.0">
 <path d="m96.102 76.898-37.102-64.199c-4-7-14-7-18.102 0l-37 64.199c-4 6.8984 1 15.602 9 15.602h74.102c8.1016 0 13.102-8.6992 9.1016-15.602zm-46.102-48.199c3.1992 0 5.6992 2.6016 5.6992 5.6992v0.39844l-1.8984 28.602c-0.10156 2-1.8008 3.6016-3.8008 3.6016s-3.6992-1.6016-3.8008-3.6016l-1.8984-28.602c-0.19922-3.2969 2.3984-6.0977 5.6992-6.0977zm0 53.402c-3.3008 0-6-2.6992-6-6 0-3.3008 2.6992-6 6-6s6 2.6992 6 6c0 3.2969-2.6992 6-6 6z"/>
</svg>