<svg id="svg" version="1.1" viewBox="0 0 400 430.7692307692308" xmlns="http://www.w3.org/2000/svg" xmlns:xlink="http://www.w3.org/1999/xlink"><g id="svgg"><path id="path0" d="M211.600 13.400 L 211.600 26.800 199.300 26.836 C 192.535 26.855,186.141 26.842,185.092 26.805 C 184.043 26.769,182.648 26.858,181.992 27.002 L 180.800 27.264 180.800 57.832 L 180.800 88.400 166.700 88.437 C 158.945 88.457,152.060 88.502,151.400 88.537 C 149.946 88.613,150.084 86.937,150.037 105.095 L 150.000 119.190 134.700 119.295 L 119.400 119.400 119.334 120.800 C 119.298 121.570,119.253 128.455,119.234 136.100 L 119.200 150.000 104.043 150.000 C 90.590 150.000,88.858 150.071,88.643 150.633 C 88.509 150.981,88.400 157.911,88.400 166.033 L 88.400 180.800 73.243 180.800 C 59.790 180.800,58.058 180.871,57.843 181.433 C 57.709 181.781,57.600 188.610,57.600 196.610 L 57.600 211.154 43.100 211.340 C 35.125 211.443,28.293 211.555,27.919 211.590 C 27.038 211.671,26.727 212.708,26.805 215.306 C 26.840 216.458,26.853 222.935,26.834 229.700 L 26.800 242.000 13.400 242.000 L 0.000 242.000 0.000 276.600 L 0.000 311.200 13.400 311.200 L 26.800 311.200 26.833 323.500 C 26.851 330.265,26.838 336.824,26.805 338.075 C 26.694 342.316,25.420 342.000,42.614 342.000 L 57.600 342.000 57.637 355.100 C 57.657 362.305,57.643 368.974,57.606 369.921 C 57.487 372.901,56.741 372.764,73.309 372.790 C 81.470 372.803,88.201 372.867,88.267 372.933 C 88.333 372.999,88.397 379.744,88.410 387.921 C 88.436 404.967,88.121 403.705,92.325 403.595 C 93.576 403.562,100.135 403.549,106.900 403.567 L 119.200 403.600 119.200 417.000 L 119.200 430.400 153.800 430.400 L 188.400 430.400 188.400 417.000 L 188.400 403.600 200.700 403.564 C 207.465 403.545,213.859 403.558,214.908 403.595 C 215.957 403.631,217.352 403.542,218.008 403.398 L 219.200 403.136 219.200 372.568 L 219.200 342.000 233.300 341.963 C 241.055 341.943,247.940 341.898,248.600 341.863 C 250.054 341.787,249.916 343.463,249.963 325.305 L 250.000 311.210 265.300 311.105 L 280.600 311.000 280.666 309.600 C 280.702 308.830,280.747 301.945,280.766 294.300 L 280.800 280.400 295.957 280.400 C 309.410 280.400,311.142 280.329,311.357 279.767 C 311.491 279.419,311.600 272.489,311.600 264.367 L 311.600 249.600 342.243 249.600 C 369.316 249.600,372.859 249.530,372.655 249.000 C 372.529 248.670,372.612 248.400,372.841 248.400 C 373.087 248.400,373.232 247.464,373.196 246.100 C 373.162 244.835,373.149 238.265,373.167 231.500 L 373.200 219.200 386.600 219.200 L 400.000 219.200 400.000 184.600 L 400.000 150.000 386.600 150.000 L 373.200 150.000 373.164 137.700 C 373.145 130.935,373.158 124.541,373.195 123.492 C 373.231 122.443,373.144 121.056,373.002 120.409 L 372.744 119.235 357.698 119.210 C 349.422 119.196,342.598 119.131,342.532 119.065 C 342.466 119.000,342.402 112.308,342.390 104.194 C 342.375 94.240,342.226 89.273,341.935 88.921 C 341.593 88.510,338.348 88.400,326.551 88.400 L 311.600 88.400 311.559 74.900 C 311.537 67.475,311.552 60.806,311.592 60.080 C 311.691 58.288,310.970 57.535,309.230 57.613 C 308.443 57.649,301.725 57.660,294.300 57.639 L 280.800 57.600 280.800 42.614 C 280.800 25.420,281.116 26.694,276.875 26.805 C 275.624 26.838,269.065 26.851,262.300 26.833 L 250.000 26.800 250.000 13.400 L 250.000 0.000 230.800 0.000 L 211.600 0.000 211.600 13.400 M247.035 30.122 L 248.000 31.245 248.009 44.322 C 248.017 56.595,248.065 57.462,248.785 58.400 L 249.553 59.400 263.166 59.600 C 280.660 59.857,278.567 57.788,278.715 74.971 L 278.830 88.321 279.855 89.345 L 280.879 90.370 294.229 90.485 C 311.412 90.633,309.367 88.597,309.516 105.702 C 309.664 122.735,307.662 120.689,324.353 120.863 C 338.719 121.013,339.099 121.078,340.060 123.521 C 340.354 124.270,340.397 133.256,340.201 152.870 C 339.905 182.485,339.951 183.517,341.606 184.403 C 342.048 184.640,347.053 184.800,353.988 184.800 C 370.228 184.800,369.200 183.789,369.200 199.760 C 369.200 216.084,370.504 214.800,353.924 214.800 L 341.627 214.800 340.213 213.387 L 338.800 211.973 338.800 200.160 C 338.800 193.220,338.638 188.046,338.408 187.616 C 337.646 186.192,335.854 186.000,323.322 186.000 L 311.164 186.000 310.182 186.982 L 309.200 187.964 309.160 215.882 C 309.138 231.237,308.999 244.234,308.851 244.764 C 308.143 247.292,307.612 247.388,293.471 247.524 L 280.600 247.649 279.500 248.699 L 278.400 249.750 278.400 262.295 C 278.400 279.766,279.994 278.154,262.547 278.329 L 249.694 278.458 248.663 279.534 L 247.632 280.610 247.516 293.740 L 247.400 306.870 246.278 307.835 L 245.155 308.800 232.256 308.800 L 219.357 308.800 218.095 310.102 L 216.832 311.405 216.716 324.492 C 216.566 341.358,218.559 339.365,201.689 339.520 L 188.600 339.640 187.300 340.899 L 186.000 342.157 186.000 353.918 C 186.000 367.310,185.923 367.708,183.013 369.414 L 181.330 370.400 169.524 370.400 C 157.885 370.400,157.699 370.413,156.359 371.315 L 155.000 372.231 154.800 384.287 C 154.516 401.386,155.541 400.401,138.041 400.399 C 121.010 400.396,122.400 401.786,122.400 384.768 L 122.400 372.788 121.031 371.294 L 119.663 369.800 106.840 369.600 L 94.017 369.400 92.908 368.292 L 91.800 367.183 91.600 354.399 L 91.400 341.614 90.093 340.307 L 88.786 339.000 76.001 338.800 L 63.217 338.600 62.108 337.492 L 61.000 336.383 60.800 323.560 L 60.600 310.737 59.106 309.369 L 57.612 308.000 45.212 308.000 L 32.813 308.000 31.506 306.833 L 30.200 305.667 29.947 290.133 C 29.459 260.222,29.531 248.094,30.204 246.792 C 31.211 244.844,31.540 244.800,44.953 244.800 L 57.559 244.800 58.580 243.462 L 59.600 242.124 59.600 229.242 C 59.600 211.578,57.948 213.200,75.934 213.200 C 88.335 213.200,88.564 213.185,89.474 212.330 L 90.400 211.461 90.400 198.556 C 90.400 191.354,90.568 185.209,90.781 184.650 C 91.528 182.685,92.068 182.609,106.200 182.472 C 123.207 182.307,121.200 184.283,121.200 167.710 C 121.200 154.047,121.329 152.984,123.085 152.163 C 123.478 151.979,129.722 151.764,136.959 151.685 C 147.811 151.566,150.279 151.436,151.034 150.941 L 151.951 150.340 152.075 137.252 C 152.243 119.633,150.597 121.206,168.873 121.202 L 181.146 121.200 181.952 120.067 C 182.717 118.993,182.766 118.226,182.880 105.481 C 182.990 93.199,183.062 91.965,183.714 91.314 C 184.363 90.665,185.674 90.582,198.173 90.400 C 211.167 90.211,211.966 90.157,212.794 89.406 L 213.670 88.613 213.535 60.191 C 213.387 28.998,213.302 30.196,215.723 29.194 C 216.207 28.994,223.211 28.869,231.335 28.916 L 246.070 29.000 247.035 30.122 M218.029 95.054 C 217.234 96.065,217.200 96.580,217.200 107.584 L 217.200 119.061 218.126 119.930 C 219.034 120.783,219.281 120.800,231.056 120.800 L 243.061 120.800 243.930 119.874 C 244.781 118.969,244.800 118.701,244.800 107.596 L 244.800 96.244 243.725 95.122 L 242.650 94.000 230.754 94.000 L 218.858 94.000 218.029 95.054 M249.692 124.668 C 247.654 125.488,246.966 148.889,248.926 150.730 C 250.159 151.888,272.697 152.108,274.311 150.977 C 275.196 150.358,275.200 150.297,275.200 138.499 L 275.200 126.644 274.125 125.522 L 273.050 124.400 261.625 124.432 C 255.341 124.449,249.971 124.555,249.692 124.668 M279.629 156.254 C 278.345 157.886,278.343 179.835,279.627 181.638 L 280.454 182.800 292.427 182.800 C 307.759 182.800,306.000 184.547,306.000 169.322 L 306.000 157.444 304.925 156.322 L 303.850 155.200 292.154 155.200 L 280.458 155.200 279.629 156.254 " stroke="none" fill="#3c342c" fill-rule="evenodd"></path><path id="path1" d="M218.224 33.573 C 217.478 34.397,217.490 39.350,218.323 76.600 L 218.600 89.000 231.000 89.203 C 249.906 89.513,249.300 88.927,249.600 107.200 L 249.800 119.400 262.200 119.600 C 275.869 119.820,275.986 119.841,278.192 122.463 C 280.131 124.768,280.187 125.162,280.399 138.000 L 280.600 150.200 293.000 150.400 C 306.669 150.620,306.786 150.641,308.992 153.263 C 310.931 155.568,310.987 155.962,311.199 168.800 L 311.400 181.000 323.200 181.000 L 335.000 181.000 335.244 167.600 C 335.380 160.182,335.684 153.397,335.927 152.400 C 336.735 149.081,336.543 126.653,335.700 125.894 C 335.100 125.354,333.133 125.246,321.929 125.132 C 304.178 124.953,305.656 126.490,305.623 108.162 C 305.602 96.820,305.538 95.668,304.897 95.088 C 304.291 94.539,302.394 94.434,291.125 94.326 C 273.395 94.155,274.856 95.656,274.823 77.576 C 274.804 67.685,274.692 65.205,274.233 64.576 C 273.697 63.843,272.947 63.789,260.661 63.600 C 242.807 63.325,244.247 64.785,244.090 46.800 C 243.984 34.585,243.955 34.179,243.146 33.500 C 241.801 32.372,219.252 32.438,218.224 33.573 M187.484 95.107 C 186.932 95.717,186.827 97.522,186.722 108.207 C 186.541 126.626,187.433 125.709,169.400 126.000 L 157.000 126.200 156.800 138.600 C 156.510 156.567,157.372 155.736,138.819 155.922 C 128.308 156.027,126.516 156.133,125.907 156.684 C 125.261 157.269,125.200 158.352,125.200 169.177 C 125.200 187.108,126.120 186.153,108.679 186.317 C 92.569 186.468,94.400 184.715,94.400 199.985 C 94.400 217.935,95.143 217.184,77.370 217.193 C 61.887 217.202,63.679 215.336,63.522 231.615 L 63.400 244.224 62.379 246.212 C 61.818 247.305,60.790 248.560,60.095 249.000 L 58.831 249.800 58.815 261.411 C 58.802 271.562,58.883 273.146,59.461 274.011 C 60.532 275.612,62.092 277.223,63.760 278.452 L 65.320 279.600 76.980 279.600 C 85.516 279.600,88.769 279.729,89.120 280.080 C 89.471 280.431,89.600 283.684,89.600 292.220 L 89.600 303.880 90.790 305.523 C 91.445 306.426,92.901 307.893,94.026 308.783 L 96.072 310.400 107.756 310.400 C 116.310 310.400,119.569 310.529,119.920 310.880 C 120.271 311.231,120.400 314.491,120.400 323.049 L 120.400 334.738 121.718 336.466 C 122.443 337.416,123.928 338.869,125.018 339.695 L 127.000 341.196 139.040 341.198 C 146.746 341.199,151.534 341.358,152.340 341.639 L 153.600 342.078 153.600 353.605 L 153.600 365.132 156.500 365.388 C 158.095 365.529,164.260 365.589,170.200 365.522 L 181.000 365.400 181.200 353.000 C 181.413 339.777,181.414 339.771,183.549 337.464 C 185.799 335.033,185.890 335.018,199.400 334.800 L 211.800 334.600 212.000 320.800 C 212.211 306.263,212.277 305.756,214.109 304.709 C 214.763 304.336,218.675 304.147,228.800 304.000 L 242.600 303.800 242.800 291.400 C 243.020 277.731,243.041 277.614,245.663 275.408 C 247.968 273.469,248.362 273.413,261.200 273.201 L 273.400 273.000 273.605 259.200 C 273.718 251.610,273.965 245.078,274.154 244.685 C 275.075 242.766,276.143 242.618,290.600 242.403 L 304.200 242.200 304.200 215.200 L 304.200 188.200 291.600 188.000 C 273.671 187.715,275.056 189.172,274.874 170.403 C 274.766 159.200,274.661 157.309,274.112 156.703 C 273.533 156.063,272.440 156.000,261.988 156.000 C 243.488 156.000,244.022 156.524,244.009 138.362 C 244.001 127.408,243.945 126.475,243.269 125.862 C 242.624 125.279,241.156 125.198,230.969 125.182 C 212.649 125.155,213.222 125.723,213.209 107.562 C 213.201 96.608,213.145 95.675,212.469 95.062 C 211.318 94.021,188.430 94.062,187.484 95.107 " stroke="none" fill="#bcb49c" fill-rule="evenodd"></path><path id="path2" d="M217.046 32.263 C 215.329 33.980,215.375 31.114,216.323 76.733 C 216.584 89.295,216.645 90.099,217.376 90.633 C 218.006 91.092,220.426 91.200,230.141 91.200 C 243.729 91.200,244.170 91.294,246.528 94.696 L 247.600 96.243 247.600 108.299 C 247.600 123.345,245.828 121.600,261.109 121.600 C 274.233 121.600,274.088 121.573,276.544 124.443 L 277.968 126.106 278.084 138.489 L 278.200 150.872 279.144 151.636 C 280.026 152.349,280.869 152.400,291.864 152.400 C 305.049 152.400,304.885 152.370,307.360 155.262 L 308.800 156.944 308.800 168.841 L 308.800 180.739 309.836 181.969 L 310.871 183.200 322.961 183.200 L 335.050 183.200 336.104 182.100 L 337.158 181.000 337.375 168.000 C 338.160 121.086,338.288 125.215,336.007 123.868 C 335.018 123.284,333.360 123.200,322.791 123.200 L 310.706 123.200 309.153 121.647 L 307.600 120.094 307.600 108.208 C 307.600 91.143,308.854 92.400,291.834 92.400 L 279.988 92.400 278.494 91.031 L 277.000 89.663 276.800 77.038 L 276.600 64.414 275.293 63.107 L 273.986 61.800 261.400 61.600 L 248.814 61.400 247.507 60.093 L 246.200 58.786 246.000 46.219 L 245.800 33.651 244.625 32.426 L 243.450 31.200 230.780 31.200 L 218.109 31.200 217.046 32.263 M243.725 33.122 L 244.800 34.244 244.800 46.138 C 244.800 63.739,243.858 62.800,261.509 62.800 L 273.450 62.800 274.508 63.904 L 275.566 65.009 275.683 77.476 C 275.845 94.777,274.637 93.598,292.225 93.599 L 304.250 93.600 305.308 94.704 L 306.366 95.809 306.483 108.276 C 306.644 125.467,305.249 124.115,323.123 124.400 L 335.647 124.600 336.415 125.600 C 337.438 126.934,337.572 147.851,336.595 153.800 C 336.169 156.387,336.003 160.655,336.002 168.969 C 336.000 179.170,335.922 180.623,335.338 181.269 C 334.373 182.335,311.903 182.399,310.731 181.338 C 310.055 180.725,310.000 179.794,309.993 168.838 C 309.986 155.222,309.929 154.972,306.246 152.500 L 304.310 151.200 292.435 151.200 C 283.732 151.200,280.432 151.072,280.080 150.720 C 279.729 150.369,279.600 147.146,279.600 138.716 C 279.600 125.857,279.420 124.869,276.655 122.537 C 274.208 120.473,273.681 120.400,261.293 120.400 C 252.856 120.400,249.631 120.271,249.280 119.920 C 248.929 119.569,248.798 116.317,248.793 107.820 C 248.786 94.584,248.738 94.367,245.267 91.719 L 243.538 90.400 231.458 90.400 C 221.349 90.400,219.238 90.302,218.518 89.798 C 217.569 89.133,217.624 90.578,216.969 48.651 L 216.745 34.301 217.847 33.151 L 218.950 32.000 230.800 32.000 L 242.650 32.000 243.725 33.122 M187.326 92.974 C 184.906 94.048,184.800 94.670,184.800 107.786 C 184.800 124.872,185.666 123.994,168.775 124.013 C 153.338 124.029,154.800 122.528,154.800 138.360 L 154.800 149.972 153.541 151.407 C 151.263 154.000,151.266 154.000,138.400 154.000 C 121.961 154.000,123.200 152.725,123.200 169.640 L 123.200 181.305 121.453 183.053 L 119.705 184.800 107.639 184.800 C 91.097 184.800,92.400 183.463,92.400 200.440 L 92.400 212.105 90.653 213.853 L 88.905 215.600 76.622 215.600 L 64.338 215.600 63.169 216.769 L 62.000 217.938 62.000 229.891 L 62.000 241.843 60.965 243.920 C 59.067 247.729,59.583 247.600,46.221 247.600 L 34.550 247.600 33.475 248.722 L 32.400 249.844 32.407 261.022 C 32.412 268.806,32.592 273.354,33.000 276.000 C 33.414 278.684,33.588 283.271,33.593 291.620 C 33.598 300.272,33.729 303.569,34.080 303.920 C 34.432 304.272,37.724 304.400,46.398 304.400 L 58.235 304.400 60.392 305.700 C 64.311 308.063,64.400 308.432,64.400 322.383 C 64.400 331.072,64.528 334.368,64.880 334.720 C 65.232 335.072,68.501 335.200,77.093 335.200 L 88.827 335.200 90.811 336.206 C 92.070 336.843,93.200 337.821,93.898 338.876 L 95.000 340.540 95.117 352.749 C 95.193 360.737,95.383 365.139,95.666 365.479 C 96.003 365.886,98.752 366.000,108.204 366.000 L 120.310 366.000 122.232 367.300 C 125.891 369.774,126.000 370.256,126.000 383.983 C 126.000 392.672,126.128 395.968,126.480 396.320 C 127.200 397.040,149.734 397.002,150.334 396.280 C 150.616 395.940,150.806 391.598,150.883 383.780 C 151.048 366.932,150.028 367.858,168.596 367.683 L 180.991 367.566 182.096 366.508 L 183.200 365.450 183.200 353.899 C 183.200 341.542,183.198 341.557,185.348 339.266 C 187.666 336.796,187.640 336.800,200.398 336.800 L 212.036 336.800 213.018 335.818 L 214.000 334.836 214.000 323.205 C 214.000 305.457,213.451 306.000,231.397 306.000 L 243.142 306.000 243.971 304.946 C 244.766 303.935,244.800 303.421,244.800 292.326 C 244.800 279.374,244.774 279.512,247.662 277.040 L 249.344 275.600 261.303 275.600 L 273.262 275.600 274.431 274.431 L 275.600 273.262 275.600 261.290 C 275.600 243.983,274.786 244.800,292.028 244.800 L 303.939 244.800 305.169 243.764 L 306.400 242.729 306.400 215.397 C 306.400 200.365,306.288 187.774,306.152 187.418 C 305.521 185.774,304.176 185.601,291.920 185.587 C 275.769 185.568,276.804 186.670,276.801 169.487 C 276.799 152.522,278.257 154.000,261.521 154.000 L 249.495 154.000 247.747 152.253 L 246.000 150.505 246.000 138.640 C 246.000 121.745,247.419 123.200,230.936 123.200 C 214.176 123.200,215.475 124.528,215.200 107.110 C 215.002 94.568,214.989 94.410,214.089 93.510 C 212.931 92.352,189.774 91.888,187.326 92.974 M213.018 94.582 L 214.000 95.564 214.000 107.447 L 214.000 119.330 214.994 121.026 C 216.878 124.240,217.643 124.400,231.144 124.400 L 242.836 124.400 243.818 125.382 L 244.800 126.364 244.800 138.227 C 244.800 151.575,244.871 151.936,247.891 154.007 L 249.340 155.000 261.622 155.116 C 277.200 155.264,275.344 153.348,275.600 169.541 C 275.892 187.991,274.772 186.800,291.816 186.800 C 302.347 186.800,303.822 186.877,304.469 187.462 C 305.590 188.477,305.608 241.907,304.487 242.922 C 303.868 243.481,302.094 243.582,291.115 243.684 C 273.434 243.846,274.400 242.848,274.400 260.953 C 274.400 271.543,274.323 273.022,273.738 273.669 C 273.125 274.346,272.191 274.400,260.998 274.400 L 248.920 274.400 247.287 275.583 C 246.388 276.234,245.191 277.555,244.627 278.518 L 243.600 280.270 243.600 292.055 C 243.600 300.688,243.472 303.968,243.120 304.320 C 242.769 304.671,239.522 304.801,231.020 304.802 C 212.291 304.806,212.806 304.291,212.802 323.020 C 212.801 331.522,212.671 334.769,212.320 335.120 C 211.968 335.472,208.675 335.600,199.998 335.600 L 188.157 335.600 186.378 336.739 C 182.111 339.474,182.000 339.908,182.000 353.907 C 182.000 362.344,181.871 365.569,181.520 365.920 C 181.167 366.273,177.739 366.400,168.587 366.400 C 155.045 366.400,152.157 366.699,150.686 368.251 L 149.800 369.186 138.374 369.193 L 126.948 369.200 126.278 367.796 C 125.872 366.943,125.057 366.128,124.204 365.722 L 122.800 365.052 122.800 353.536 L 122.800 342.021 120.989 340.211 L 119.179 338.400 107.664 338.400 L 96.148 338.400 95.478 336.996 C 95.072 336.143,94.257 335.328,93.404 334.922 L 92.000 334.252 92.000 322.779 L 92.000 311.305 90.147 309.453 L 88.295 307.600 76.838 307.600 L 65.382 307.600 64.650 306.241 C 64.247 305.493,63.307 304.553,62.559 304.150 L 61.200 303.418 61.200 292.023 L 61.200 280.627 59.315 278.714 L 57.430 276.800 45.969 276.800 L 34.509 276.800 34.254 274.944 C 34.114 273.923,34.000 267.713,34.000 261.144 L 34.000 249.200 45.665 249.200 L 57.330 249.200 59.026 248.206 C 60.238 247.496,61.020 246.616,61.761 245.127 L 62.800 243.043 62.800 230.891 L 62.800 218.738 63.969 217.569 L 65.138 216.400 77.110 216.400 C 94.424 216.400,93.600 217.224,93.600 199.910 L 93.600 187.938 94.769 186.769 L 95.938 185.600 108.044 185.600 C 125.307 185.600,124.400 186.519,124.400 169.027 L 124.400 157.164 125.382 156.182 L 126.364 155.200 138.110 155.200 L 149.857 155.200 152.028 154.100 C 155.918 152.130,155.986 151.859,155.993 138.226 C 156.000 126.897,156.018 126.632,156.870 125.726 L 157.739 124.800 169.611 124.800 C 186.711 124.800,186.000 125.550,186.000 107.519 L 186.000 95.564 186.982 94.582 L 187.964 93.600 200.000 93.600 L 212.036 93.600 213.018 94.582 " stroke="none" fill="#9c947c" fill-rule="evenodd"></path><path id="path3" d="M217.847 33.151 L 216.745 34.301 216.969 48.651 C 217.624 90.578,217.569 89.133,218.518 89.798 C 219.238 90.302,221.349 90.400,231.458 90.400 L 243.538 90.400 245.267 91.719 C 248.738 94.367,248.786 94.584,248.793 107.820 C 248.798 116.317,248.929 119.569,249.280 119.920 C 249.631 120.271,252.856 120.400,261.293 120.400 C 273.681 120.400,274.208 120.473,276.655 122.537 C 279.420 124.869,279.600 125.857,279.600 138.716 C 279.600 147.146,279.729 150.369,280.080 150.720 C 280.432 151.072,283.732 151.200,292.435 151.200 L 304.310 151.200 306.246 152.500 C 309.929 154.972,309.986 155.222,309.993 168.838 C 310.000 179.794,310.055 180.725,310.731 181.338 C 311.903 182.399,334.373 182.335,335.338 181.269 C 335.922 180.623,336.000 179.170,336.002 168.969 C 336.003 160.655,336.169 156.387,336.595 153.800 C 337.572 147.851,337.438 126.934,336.415 125.600 L 335.647 124.600 323.123 124.400 C 305.249 124.115,306.644 125.467,306.483 108.276 L 306.366 95.809 305.308 94.704 L 304.250 93.600 292.225 93.599 C 274.637 93.598,275.845 94.777,275.683 77.476 L 275.566 65.009 274.508 63.904 L 273.450 62.800 261.509 62.800 C 243.858 62.800,244.800 63.739,244.800 46.138 L 244.800 34.244 243.725 33.122 L 242.650 32.000 230.800 32.000 L 218.950 32.000 217.847 33.151 M243.146 33.500 C 243.955 34.179,243.984 34.585,244.090 46.800 C 244.247 64.785,242.807 63.325,260.661 63.600 C 272.947 63.789,273.697 63.843,274.233 64.576 C 274.692 65.205,274.804 67.685,274.823 77.576 C 274.856 95.656,273.395 94.155,291.125 94.326 C 302.394 94.434,304.291 94.539,304.897 95.088 C 305.538 95.668,305.602 96.820,305.623 108.162 C 305.656 126.490,304.178 124.953,321.929 125.132 C 333.133 125.246,335.100 125.354,335.700 125.894 C 336.543 126.653,336.735 149.081,335.927 152.400 C 335.684 153.397,335.380 160.182,335.244 167.600 L 335.000 181.000 323.200 181.000 L 311.400 181.000 311.199 168.800 C 310.987 155.962,310.931 155.568,308.992 153.263 C 306.786 150.641,306.669 150.620,293.000 150.400 L 280.600 150.200 280.399 138.000 C 280.187 125.162,280.131 124.768,278.192 122.463 C 275.986 119.841,275.869 119.820,262.200 119.600 L 249.800 119.400 249.600 107.200 C 249.300 88.927,249.906 89.513,231.000 89.203 L 218.600 89.000 218.323 76.600 C 217.490 39.350,217.478 34.397,218.224 33.573 C 219.252 32.438,241.801 32.372,243.146 33.500 M186.982 94.582 L 186.000 95.564 186.000 107.519 C 186.000 125.550,186.711 124.800,169.611 124.800 L 157.739 124.800 156.870 125.726 C 156.018 126.632,156.000 126.897,155.993 138.226 C 155.986 151.859,155.918 152.130,152.028 154.100 L 149.857 155.200 138.110 155.200 L 126.364 155.200 125.382 156.182 L 124.400 157.164 124.400 169.027 C 124.400 186.519,125.307 185.600,108.044 185.600 L 95.938 185.600 94.769 186.769 L 93.600 187.938 93.600 199.910 C 93.600 217.224,94.424 216.400,77.110 216.400 L 65.138 216.400 63.969 217.569 L 62.800 218.738 62.800 230.891 L 62.800 243.043 61.761 245.127 C 61.020 246.616,60.238 247.496,59.026 248.206 L 57.330 249.200 45.665 249.200 L 34.000 249.200 34.000 261.144 C 34.000 267.713,34.114 273.923,34.254 274.944 L 34.509 276.800 45.969 276.800 L 57.430 276.800 59.315 278.714 L 61.200 280.627 61.200 292.023 L 61.200 303.418 62.559 304.150 C 63.307 304.553,64.247 305.493,64.650 306.241 L 65.382 307.600 76.838 307.600 L 88.295 307.600 90.147 309.453 L 92.000 311.305 92.000 322.779 L 92.000 334.252 93.404 334.922 C 94.257 335.328,95.072 336.143,95.478 336.996 L 96.148 338.400 107.664 338.400 L 119.179 338.400 120.989 340.211 L 122.800 342.021 122.800 353.536 L 122.800 365.052 124.204 365.722 C 125.057 366.128,125.872 366.943,126.278 367.796 L 126.948 369.200 138.374 369.193 L 149.800 369.186 150.686 368.251 C 152.157 366.699,155.045 366.400,168.587 366.400 C 177.739 366.400,181.167 366.273,181.520 365.920 C 181.871 365.569,182.000 362.344,182.000 353.907 C 182.000 339.908,182.111 339.474,186.378 336.739 L 188.157 335.600 199.998 335.600 C 208.675 335.600,211.968 335.472,212.320 335.120 C 212.671 334.769,212.801 331.522,212.802 323.020 C 212.806 304.291,212.291 304.806,231.020 304.802 C 239.522 304.801,242.769 304.671,243.120 304.320 C 243.472 303.968,243.600 300.688,243.600 292.055 L 243.600 280.270 244.627 278.518 C 245.191 277.555,246.388 276.234,247.287 275.583 L 248.920 274.400 260.998 274.400 C 272.191 274.400,273.125 274.346,273.738 273.669 C 274.323 273.022,274.400 271.543,274.400 260.953 C 274.400 242.848,273.434 243.846,291.115 243.684 C 302.094 243.582,303.868 243.481,304.487 242.922 C 305.608 241.907,305.590 188.477,304.469 187.462 C 303.822 186.877,302.347 186.800,291.816 186.800 C 274.772 186.800,275.892 187.991,275.600 169.541 C 275.344 153.348,277.200 155.264,261.622 155.116 L 249.340 155.000 247.891 154.007 C 244.871 151.936,244.800 151.575,244.800 138.227 L 244.800 126.364 243.818 125.382 L 242.836 124.400 231.144 124.400 C 217.643 124.400,216.878 124.240,214.994 121.026 L 214.000 119.330 214.000 107.447 L 214.000 95.564 213.018 94.582 L 212.036 93.600 200.000 93.600 L 187.964 93.600 186.982 94.582 M212.469 95.062 C 213.145 95.675,213.201 96.608,213.209 107.562 C 213.222 125.723,212.649 125.155,230.969 125.182 C 241.156 125.198,242.624 125.279,243.269 125.862 C 243.945 126.475,244.001 127.408,244.009 138.362 C 244.022 156.524,243.488 156.000,261.988 156.000 C 272.440 156.000,273.533 156.063,274.112 156.703 C 274.661 157.309,274.766 159.200,274.874 170.403 C 275.056 189.172,273.671 187.715,291.600 188.000 L 304.200 188.200 304.200 215.200 L 304.200 242.200 290.600 242.403 C 276.143 242.618,275.075 242.766,274.154 244.685 C 273.965 245.078,273.718 251.610,273.605 259.200 L 273.400 273.000 261.200 273.201 C 248.362 273.413,247.968 273.469,245.663 275.408 C 243.041 277.614,243.020 277.731,242.800 291.400 L 242.600 303.800 228.800 304.000 C 214.263 304.211,213.756 304.277,212.709 306.109 C 212.336 306.763,212.147 310.675,212.000 320.800 L 211.800 334.600 199.400 334.800 C 185.890 335.018,185.799 335.033,183.549 337.464 C 181.414 339.771,181.413 339.777,181.200 353.000 L 181.000 365.400 170.200 365.522 C 164.260 365.589,158.095 365.529,156.500 365.388 L 153.600 365.132 153.600 353.605 L 153.600 342.078 152.340 341.639 C 151.534 341.358,146.746 341.199,139.040 341.198 L 127.000 341.196 125.018 339.695 C 123.928 338.869,122.443 337.416,121.718 336.466 L 120.400 334.738 120.400 323.049 C 120.400 314.491,120.271 311.231,119.920 310.880 C 119.569 310.529,116.310 310.400,107.756 310.400 L 96.072 310.400 94.026 308.783 C 92.901 307.893,91.445 306.426,90.790 305.523 L 89.600 303.880 89.600 292.220 C 89.600 283.684,89.471 280.431,89.120 280.080 C 88.769 279.729,85.516 279.600,76.980 279.600 L 65.320 279.600 63.760 278.452 C 62.092 277.223,60.532 275.612,59.461 274.011 C 58.883 273.146,58.802 271.562,58.815 261.411 L 58.831 249.800 60.095 249.000 C 60.790 248.560,61.818 247.305,62.379 246.212 L 63.400 244.224 63.522 231.615 C 63.679 215.336,61.887 217.202,77.370 217.193 C 95.143 217.184,94.400 217.935,94.400 199.985 C 94.400 184.715,92.569 186.468,108.679 186.317 C 126.120 186.153,125.200 187.108,125.200 169.177 C 125.200 158.352,125.261 157.269,125.907 156.684 C 126.516 156.133,128.308 156.027,138.819 155.922 C 157.372 155.736,156.510 156.567,156.800 138.600 L 157.000 126.200 169.400 126.000 C 187.433 125.709,186.541 126.626,186.722 108.207 C 186.827 97.522,186.932 95.717,187.484 95.107 C 188.430 94.062,211.318 94.021,212.469 95.062 " stroke="none" fill="#aca494" fill-rule="evenodd"></path><path id="path4" d="M215.723 29.194 C 213.302 30.196,213.387 28.998,213.535 60.191 L 213.670 88.613 212.794 89.406 C 211.966 90.157,211.167 90.211,198.173 90.400 C 185.674 90.582,184.363 90.665,183.714 91.314 C 183.062 91.965,182.990 93.199,182.880 105.481 C 182.766 118.226,182.717 118.993,181.952 120.067 L 181.146 121.200 168.873 121.202 C 150.597 121.206,152.243 119.633,152.075 137.252 L 151.951 150.340 151.034 150.941 C 150.279 151.436,147.811 151.566,136.959 151.685 C 129.722 151.764,123.478 151.979,123.085 152.163 C 121.329 152.984,121.200 154.047,121.200 167.710 C 121.200 184.283,123.207 182.307,106.200 182.472 C 92.068 182.609,91.528 182.685,90.781 184.650 C 90.568 185.209,90.400 191.354,90.400 198.556 L 90.400 211.461 89.474 212.330 C 88.564 213.185,88.335 213.200,75.934 213.200 C 57.948 213.200,59.600 211.578,59.600 229.242 L 59.600 242.124 58.580 243.462 L 57.559 244.800 44.953 244.800 C 31.540 244.800,31.211 244.844,30.204 246.792 C 29.531 248.094,29.459 260.222,29.947 290.133 L 30.200 305.667 31.506 306.833 L 32.813 308.000 45.212 308.000 L 57.612 308.000 59.106 309.369 L 60.600 310.737 60.800 323.560 L 61.000 336.383 62.108 337.492 L 63.217 338.600 76.001 338.800 L 88.786 339.000 90.093 340.307 L 91.400 341.614 91.600 354.399 L 91.800 367.183 92.908 368.292 L 94.017 369.400 106.840 369.600 L 119.663 369.800 121.031 371.294 L 122.400 372.788 122.400 384.768 C 122.400 401.786,121.010 400.396,138.041 400.399 C 155.541 400.401,154.516 401.386,154.800 384.287 L 155.000 372.231 156.359 371.315 C 157.699 370.413,157.885 370.400,169.524 370.400 L 181.330 370.400 183.013 369.414 C 185.923 367.708,186.000 367.310,186.000 353.918 L 186.000 342.157 187.300 340.899 L 188.600 339.640 201.689 339.520 C 218.559 339.365,216.566 341.358,216.716 324.492 L 216.832 311.405 218.095 310.102 L 219.357 308.800 232.256 308.800 L 245.155 308.800 246.278 307.835 L 247.400 306.870 247.516 293.740 L 247.632 280.610 248.663 279.534 L 249.694 278.458 262.547 278.329 C 279.994 278.154,278.400 279.766,278.400 262.295 L 278.400 249.750 279.500 248.699 L 280.600 247.649 293.471 247.524 C 307.612 247.388,308.143 247.292,308.851 244.764 C 308.999 244.234,309.138 231.237,309.160 215.882 L 309.200 187.964 310.182 186.982 L 311.164 186.000 323.322 186.000 C 335.854 186.000,337.646 186.192,338.408 187.616 C 338.638 188.046,338.800 193.220,338.800 200.160 L 338.800 211.973 340.213 213.387 L 341.627 214.800 353.924 214.800 C 370.504 214.800,369.200 216.084,369.200 199.760 C 369.200 183.789,370.228 184.800,353.988 184.800 C 347.053 184.800,342.048 184.640,341.606 184.403 C 339.951 183.517,339.905 182.485,340.201 152.870 C 340.397 133.256,340.354 124.270,340.060 123.521 C 339.099 121.078,338.719 121.013,324.353 120.863 C 307.662 120.689,309.664 122.735,309.516 105.702 C 309.367 88.597,311.412 90.633,294.229 90.485 L 280.879 90.370 279.855 89.345 L 278.830 88.321 278.715 74.971 C 278.567 57.788,280.660 59.857,263.166 59.600 L 249.553 59.400 248.785 58.400 C 248.065 57.462,248.017 56.595,248.009 44.322 L 248.000 31.245 247.035 30.122 L 246.070 29.000 231.335 28.916 C 223.211 28.869,216.207 28.994,215.723 29.194 M244.625 32.426 L 245.800 33.651 246.000 46.219 L 246.200 58.786 247.507 60.093 L 248.814 61.400 261.400 61.600 L 273.986 61.800 275.293 63.107 L 276.600 64.414 276.800 77.038 L 277.000 89.663 278.494 91.031 L 279.988 92.400 291.834 92.400 C 308.854 92.400,307.600 91.143,307.600 108.208 L 307.600 120.094 309.153 121.647 L 310.706 123.200 322.791 123.200 C 333.360 123.200,335.018 123.284,336.007 123.868 C 338.288 125.215,338.160 121.086,337.375 168.000 L 337.158 181.000 336.104 182.100 L 335.050 183.200 322.961 183.200 L 310.871 183.200 309.836 181.969 L 308.800 180.739 308.800 168.841 L 308.800 156.944 307.360 155.262 C 304.885 152.370,305.049 152.400,291.864 152.400 C 280.869 152.400,280.026 152.349,279.144 151.636 L 278.200 150.872 278.084 138.489 L 277.968 126.106 276.544 124.443 C 274.088 121.573,274.233 121.600,261.109 121.600 C 245.828 121.600,247.600 123.345,247.600 108.299 L 247.600 96.243 246.528 94.696 C 244.170 91.294,243.729 91.200,230.141 91.200 C 220.426 91.200,218.006 91.092,217.376 90.633 C 216.645 90.099,216.584 89.295,216.323 76.733 C 215.375 31.114,215.329 33.980,217.046 32.263 L 218.109 31.200 230.780 31.200 L 243.450 31.200 244.625 32.426 M214.089 93.510 C 214.989 94.410,215.002 94.568,215.200 107.110 C 215.475 124.528,214.176 123.200,230.936 123.200 C 247.419 123.200,246.000 121.745,246.000 138.640 L 246.000 150.505 247.747 152.253 L 249.495 154.000 261.521 154.000 C 278.257 154.000,276.799 152.522,276.801 169.487 C 276.804 186.670,275.769 185.568,291.920 185.587 C 304.176 185.601,305.521 185.774,306.152 187.418 C 306.288 187.774,306.400 200.365,306.400 215.397 L 306.400 242.729 305.169 243.764 L 303.939 244.800 292.028 244.800 C 274.786 244.800,275.600 243.983,275.600 261.290 L 275.600 273.262 274.431 274.431 L 273.262 275.600 261.303 275.600 L 249.344 275.600 247.662 277.040 C 244.774 279.512,244.800 279.374,244.800 292.326 C 244.800 303.421,244.766 303.935,243.971 304.946 L 243.142 306.000 231.397 306.000 C 213.451 306.000,214.000 305.457,214.000 323.205 L 214.000 334.836 213.018 335.818 L 212.036 336.800 200.398 336.800 C 187.640 336.800,187.666 336.796,185.348 339.266 C 183.198 341.557,183.200 341.542,183.200 353.899 L 183.200 365.450 182.096 366.508 L 180.991 367.566 168.596 367.683 C 150.028 367.858,151.048 366.932,150.883 383.780 C 150.806 391.598,150.616 395.940,150.334 396.280 C 149.734 397.002,127.200 397.040,126.480 396.320 C 126.128 395.968,126.000 392.672,126.000 383.983 C 126.000 370.256,125.891 369.774,122.232 367.300 L 120.310 366.000 108.204 366.000 C 98.752 366.000,96.003 365.886,95.666 365.479 C 95.383 365.139,95.193 360.737,95.117 352.749 L 95.000 340.540 93.898 338.876 C 93.200 337.821,92.070 336.843,90.811 336.206 L 88.827 335.200 77.093 335.200 C 68.501 335.200,65.232 335.072,64.880 334.720 C 64.528 334.368,64.400 331.072,64.400 322.383 C 64.400 308.432,64.311 308.063,60.392 305.700 L 58.235 304.400 46.398 304.400 C 37.724 304.400,34.432 304.272,34.080 303.920 C 33.729 303.569,33.598 300.272,33.593 291.620 C 33.588 283.271,33.414 278.684,33.000 276.000 C 32.592 273.354,32.412 268.806,32.407 261.022 L 32.400 249.844 33.475 248.722 L 34.550 247.600 46.221 247.600 C 59.583 247.600,59.067 247.729,60.965 243.920 L 62.000 241.843 62.000 229.891 L 62.000 217.938 63.169 216.769 L 64.338 215.600 76.622 215.600 L 88.905 215.600 90.653 213.853 L 92.400 212.105 92.400 200.440 C 92.400 183.463,91.097 184.800,107.639 184.800 L 119.705 184.800 121.453 183.053 L 123.200 181.305 123.200 169.640 C 123.200 152.725,121.961 154.000,138.400 154.000 C 151.266 154.000,151.263 154.000,153.541 151.407 L 154.800 149.972 154.800 138.360 C 154.800 122.528,153.338 124.029,168.775 124.013 C 185.666 123.994,184.800 124.872,184.800 107.786 C 184.800 91.048,183.409 92.368,200.889 92.504 C 213.082 92.599,213.186 92.607,214.089 93.510 M243.725 95.122 L 244.800 96.244 244.800 107.596 C 244.800 118.701,244.781 118.969,243.930 119.874 L 243.061 120.800 231.056 120.800 C 219.281 120.800,219.034 120.783,218.126 119.930 L 217.200 119.061 217.200 107.584 C 217.200 96.580,217.234 96.065,218.029 95.054 L 218.858 94.000 230.754 94.000 L 242.650 94.000 243.725 95.122 M274.125 125.522 L 275.200 126.644 275.200 138.499 C 275.200 150.297,275.196 150.358,274.311 150.977 C 272.697 152.108,250.159 151.888,248.926 150.730 C 247.743 149.619,247.454 128.217,248.592 126.016 C 249.420 124.414,248.990 124.467,261.625 124.432 L 273.050 124.400 274.125 125.522 M304.925 156.322 L 306.000 157.444 306.000 169.322 C 306.000 184.547,307.759 182.800,292.427 182.800 L 280.454 182.800 279.627 181.638 C 278.343 179.835,278.345 157.886,279.629 156.254 L 280.458 155.200 292.154 155.200 L 303.850 155.200 304.925 156.322 " stroke="none" fill="#847c6c" fill-rule="evenodd"></path></g></svg>