<?xml version="1.0" encoding="UTF-8"?>
<svg xmlns="http://www.w3.org/2000/svg" viewBox="-4.155 0 112.48 112.48">
  <path d="m0,64.47v15.83h8.06v8.3h8.03v7.79h7.79s0,0,0,0c.27.03.29,2.54,0,8.17h8.1v7.92h16.04v-7.93h8.15v-16.08h8.07v-8.1h8.02v-8.02h7.72v-7.7h16.16v-8.11h8.03v-16.06h-8.17v-8.18h-7.8v-7.92h-8.18v-7.53h-8.18v-8.3h-7.64V0h-8.45c-.04,2.85-.08,5.7-.12,8.56-2.46,0-4.93,0-7.39,0v16.09h-8.3v7.79h-7.92c.02,2.81.04,5.62.06,8.43h-8.24v7.54h-7.79v8.22h-8.04v7.79c-2.68.02-5.36.04-8.04.06Z"/>
</svg>