<svg xmlns="http://www.w3.org/2000/svg" xml:space="preserve" viewBox="0 0 100 100">
  <path d="M75.988 21.367H48.937a5.98 5.98 0 0 1-3.684-1.281l-1.902-1.508a16.7 16.7 0 0 0-10.355-3.605h-8.988c-9.192 0-16.668 7.472-16.668 16.668v36.723c0 9.19 7.472 16.667 16.668 16.667h51.977c9.191 0 16.668-7.472 16.668-16.668V38.035c0-9.19-7.473-16.668-16.668-16.668zm5.934 46.996a5.94 5.94 0 0 1-5.934 5.934l-51.977-.004a5.94 5.94 0 0 1-5.934-5.934V31.636a5.94 5.94 0 0 1 5.934-5.934h8.988a5.98 5.98 0 0 1 3.684 1.282l1.902 1.507a16.7 16.7 0 0 0 10.355 3.606h27.051a5.94 5.94 0 0 1 5.934 5.934v30.328z"/>
  <path d="M71.797 38.758H58.496a4.24 4.24 0 0 0 0 8.477h13.301a4.24 4.24 0 0 0 0-8.477"/>
</svg>
