<?xml version="1.0" encoding="UTF-8"?>
<svg version="1.1" xmlns="http://www.w3.org/2000/svg" viewBox="0 0 400 400">
<path d="M0 0 C132 0 264 0 400 0 C400 132 400 264 400 400 C268 400 136 400 0 400 C0 268 0 136 0 0 Z " fill="#202C44" transform="translate(0,0)"/>
<path d="M0 0 C59.73 0 119.46 0 181 0 C181 4.29 181 8.58 181 13 C138.43 13.33 95.86 13.66 52 14 C78.63969693 15.27290543 78.63969693 15.27290543 105.27954102 16.54272461 C110.48034668 16.79211426 110.48034668 16.79211426 112.92979431 16.90992737 C114.60827721 16.99039792 116.28678615 17.07032668 117.96531677 17.14979553 C128.65270637 17.65625096 139.32735365 18.23992594 150 19 C147.23612682 21.76387318 144.05188159 22.16459934 140.375 23.125 C123.30386698 27.9073837 106.07555301 36.84790449 95 51 C94.34 51 93.68 51 93 51 C92.7525 51.721875 92.505 52.44375 92.25 53.1875 C91 56 91 56 89.09375 58.3125 C82.79115856 66.40239349 80.97457021 76.10403448 81.515625 86.1171875 C82.38876753 93.11641066 84.49360524 100.13705773 89.8125 105.0625 C94.74614813 108.06138416 98.68613291 109.911206 104.4609375 110.1328125 C115.11528283 110.62987121 115.11528283 110.62987121 119.2734375 115.0625 C121.69277842 118.01641504 123.85230792 121.12032336 125.88134766 124.35327148 C127.05933434 126.20765375 127.05933434 126.20765375 129.28515625 128.2109375 C132.09515577 132.78118729 131.4150734 137.5758021 131.25 142.8125 C131.1675 146.504375 131.085 150.19625 131 154 C120.11 154 109.22 154 98 154 C98.061875 150.638125 98.12375 147.27625 98.1875 143.8125 C97.97631542 138.54802564 97.58580763 133.90189767 94.12109375 129.74658203 C89.55292875 125.86538093 84.45360986 122.97260327 79.16162109 120.19433594 C76.52419164 118.73710701 74.26085726 116.98582514 72 115 C72.86238281 115.98226562 73.72476563 116.96453125 74.61328125 117.9765625 C78.02367793 121.96086735 81.13922188 126.10972872 84.1875 130.375 C84.96770508 131.43074219 84.96770508 131.43074219 85.76367188 132.5078125 C89.28390414 137.43523851 91.4149521 142.1581865 93 148 C92.278125 147.70996094 91.55625 147.41992188 90.8125 147.12109375 C86.24103285 145.29885615 81.66618151 143.5674046 77 142 C76.11183594 141.69449219 75.22367188 141.38898438 74.30859375 141.07421875 C56.33117478 135.91335426 33.15748636 136.90274796 16.1875 145.125 C15.135625 145.74375 14.08375 146.3625 13 147 C11.67094296 147.67515154 10.33851868 148.34380646 9 149 C12.10544889 138.48561214 19.11561267 129.3832666 26 121 C26.804375 119.989375 27.60875 118.97875 28.4375 117.9375 C28.953125 117.298125 29.46875 116.65875 30 116 C23.99473461 119.91454337 18.15871324 124.02009112 12.3828125 128.265625 C10.61720808 129.55075346 8.81701842 130.78865439 7 132 C6.39961877 134.31258101 6.39961877 134.31258101 6.26953125 137.0078125 C6.19581299 137.8961377 6.12209473 138.78446289 6.04614258 139.69970703 C5.96904053 140.83005371 5.89193848 141.96040039 5.8125 143.125 C5.544375 146.71375 5.27625 150.3025 5 154 C-6.88 154 -18.76 154 -31 154 C-32.58422234 131.55685019 -32.58422234 131.55685019 -26.90332031 124.61962891 C-24.82608239 122.42767052 -22.69568543 120.33959154 -20.42675781 118.34643555 C-18.78225085 116.88319495 -18.78225085 116.88319495 -17.0625 114.26171875 C-14.24543347 111.17254921 -11.79762546 110.81830918 -7.75 109.9375 C2.54055461 107.5897727 2.54055461 107.5897727 10.4375 100.9375 C13.69464568 94.81406611 13.73204346 88.81363525 13 82 C10.69770362 76.24870365 7.02473841 71.91277396 1.38671875 69.37109375 C-6.55488981 66.90468592 -15.23173806 67.24669882 -23.48461914 66.99145508 C-37.19306591 66.53846502 -49.5573741 64.70740763 -61.625 57.625 C-62.74068359 56.98643066 -62.74068359 56.98643066 -63.87890625 56.33496094 C-83.1107353 45.07906099 -100.72235885 30.97651797 -117.8359375 16.76953125 C-119.98049754 14.97294727 -119.98049754 14.97294727 -122.2890625 13.38671875 C-123.13597656 12.70029297 -123.13597656 12.70029297 -124 12 C-124 11.34 -124 10.68 -124 10 C-91.99 10 -59.98 10 -27 10 C-25.35 20.56 -23.7 31.12 -22 42 C-21.67 30.78 -21.34 19.56 -21 8 C-16.05 8 -11.1 8 -6 8 C-5.54072525 11.18736674 -5.08257289 14.37488884 -4.625 17.5625 C-4.49867188 18.43841797 -4.37234375 19.31433594 -4.2421875 20.21679688 C-3.10646662 28.13845002 -2.05784026 36.06619808 -1 44 C-0.67 29.48 -0.34 14.96 0 0 Z " fill="#F8F5F7" transform="translate(172,123)"/>
<path d="M0 0 C1.35477854 0.00317909 2.70954984 0.01207018 4.06426907 0.02513981 C4.80833002 0.02836894 5.55239097 0.03159806 6.31899923 0.03492504 C8.8310991 0.04706164 11.34309289 0.06642142 13.85514736 0.08570194 C15.64837312 0.09583823 17.44160143 0.1055326 19.23483181 0.11481571 C24.11894923 0.14136188 29.00300787 0.17412789 33.88707948 0.20796561 C38.98533686 0.24224436 44.08362583 0.27086538 49.18191433 0.30007267 C58.84338449 0.35628852 68.50481509 0.4176324 78.16624206 0.48079401 C89.16240523 0.55243362 100.15860013 0.618394 111.15480149 0.68386447 C133.78143929 0.81870952 156.40802565 0.96092986 179.03459072 1.10743046 C179.03459072 6.05743046 179.03459072 11.00743046 179.03459072 16.10743046 C178.70459072 16.10743046 178.37459072 16.10743046 178.03459072 16.10743046 C178.03459072 11.81743046 178.03459072 7.52743046 178.03459072 3.10743046 C118.30459072 3.10743046 58.57459072 3.10743046 -2.96540928 3.10743046 C-2.96540928 17.95743046 -2.96540928 32.80743046 -2.96540928 48.10743046 C-3.62540928 47.77743046 -4.28540928 47.44743046 -4.96540928 47.10743046 C-5.52790928 44.15039921 -5.52790928 44.15039921 -5.96540928 40.29493046 C-6.12764612 38.92361949 -6.29173358 37.55252629 -6.45759678 36.18164921 C-6.58086338 35.15176884 -6.58086338 35.15176884 -6.70662022 34.1010828 C-7.0763177 31.2530171 -7.58177575 28.43357027 -8.09040928 25.60743046 C-9.24964547 18.69838274 -9.88382913 14.13576869 -5.96540928 8.10743046 C-5.26810122 5.78307025 -4.59628776 3.4506934 -3.96540928 1.10743046 C-2.96540928 0.10743046 -2.96540928 0.10743046 0 0 Z " fill="#303645" transform="translate(174.96540927886963,119.89256954193115)"/>
<path d="M0 0 C47.52 0 95.04 0 144 0 C144 0.33 144 0.66 144 1 C126.84 1.33 109.68 1.66 92 2 C92.495 3.485 92.495 3.485 93 5 C73.38051637 4.28140773 53.76844561 3.42848094 34.15606689 2.54064941 C30.28636463 2.36566221 26.41661764 2.19166978 22.546875 2.01757812 C15.03120743 1.67932479 7.51558768 1.3400243 0 1 C0 0.67 0 0.34 0 0 Z " fill="#363C4C" transform="translate(203,136)"/>
<path d="M0 0 C3.10846647 1.89351492 6.17161436 3.84733885 9.21435547 5.84472656 C10.45934612 6.65020862 11.71450233 7.44010097 12.97705078 8.21777344 C25.11987305 15.73681641 25.11987305 15.73681641 27.17578125 21.0234375 C27.44224496 24.11759815 27.31881681 26.91401675 27 30 C27.00502431 31.9167733 27.02465841 33.83359369 27.0625 35.75 C27.04690702 37.16673404 27.02820542 38.58346093 27 40 C26.67 40 26.34 40 26 40 C25.9175 39.05125 25.835 38.1025 25.75 37.125 C25.5025 36.09375 25.255 35.0625 25 34 C24.36578125 33.690625 23.7315625 33.38125 23.078125 33.0625 C20.41360107 31.70018701 20.11498255 30.61599876 19 27.875 C16.55911808 22.64125946 13.4023527 18.21249 9.9375 13.625 C9.15922852 12.59028564 9.15922852 12.59028564 8.36523438 11.53466797 C6.22739856 8.73782579 4.13245491 6.13136384 1.62890625 3.6484375 C0 2 0 2 0 0 Z " fill="#232E42" transform="translate(243,237)"/>
<path d="M0 0 C0.66 0.33 1.32 0.66 2 1 C1.40832031 1.71285156 0.81664062 2.42570313 0.20703125 3.16015625 C-5.05484262 9.5070003 -5.05484262 9.5070003 -9.875 16.1875 C-10.57625 17.115625 -11.2775 18.04375 -12 19 C-12.99 19 -13.98 19 -15 19 C-15 18.34 -15 17.68 -15 17 C-17.31 17 -19.62 17 -22 17 C-18.86081277 13.62287927 -15.37436629 11.05286131 -11.5625 8.5 C-7.5785094 5.81344247 -3.7144195 3.05484968 0 0 Z " fill="#273345" transform="translate(201,238)"/>
<path d="M0 0 C0.33 0 0.66 0 1 0 C1.70776992 7.35575165 2.14715692 14.6094524 2 22 C1.67 22 1.34 22 1 22 C0.87625 20.576875 0.87625 20.576875 0.75 19.125 C0.5025 18.09375 0.255 17.0625 0 16 C-0.61875 15.7215625 -1.2375 15.443125 -1.875 15.15625 C-4.89500368 13.5130127 -5.44146313 11.50094919 -6.75 8.375 C-7.17796875 7.37210937 -7.6059375 6.36921875 -8.046875 5.3359375 C-8.36140625 4.56507813 -8.6759375 3.79421875 -9 3 C-8.34 2.67 -7.68 2.34 -7 2 C-6.67 2.66 -6.34 3.32 -6 4 C-5.01 4.33 -4.02 4.66 -3 5 C-3 5.66 -3 6.32 -3 7 C-2.34 7 -1.68 7 -1 7 C-0.67 4.69 -0.34 2.38 0 0 Z " fill="#303747" transform="translate(268,255)"/>
<path d="M0 0 C0.33 0 0.66 0 1 0 C1 12.87 1 25.74 1 39 C0.67 39 0.34 39 0 39 C-0.50400451 36.08397391 -1.00334666 33.16727908 -1.5 30.25 C-1.64308594 29.425 -1.78617188 28.6 -1.93359375 27.75 C-2.13662109 26.55117187 -2.13662109 26.55117187 -2.34375 25.328125 C-2.46943359 24.5949707 -2.59511719 23.86181641 -2.72460938 23.10644531 C-3 21 -3 21 -3 17 C-2.01 17 -1.02 17 0 17 C0 11.39 0 5.78 0 0 Z " fill="#303544" transform="translate(150,131)"/>
<path d="M0 0 C0.33 0 0.66 0 1 0 C1.0270491 3.06255961 1.04686298 6.1248786 1.0625 9.1875 C1.07087891 10.05181641 1.07925781 10.91613281 1.08789062 11.80664062 C1.10396812 16.00286769 1.07559038 19.90936886 0 24 C-0.33 24 -0.66 24 -1 24 C-4.0860879 7.21939702 -4.0860879 7.21939702 -1.5625 2.0625 C-1.046875 1.381875 -0.53125 0.70125 0 0 Z " fill="#363F4E" transform="translate(169,128)"/>
<path d="M0 0 C0.99 0.33 1.98 0.66 3 1 C2.67 1.99 2.34 2.98 2 4 C1.01 4.33 0.02 4.66 -1 5 C-1.91039125 7.28697319 -2.45841999 9.58315365 -3.05859375 11.96875 C-3.36925781 12.6390625 -3.67992187 13.309375 -4 14 C-5.97265625 14.59375 -5.97265625 14.59375 -8 15 C-8.99 16.485 -8.99 16.485 -10 18 C-10.99 17.67 -11.98 17.34 -13 17 C-11.58435393 15.10339726 -10.16751545 13.20770483 -8.75 11.3125 C-7.56664062 9.72888672 -7.56664062 9.72888672 -6.359375 8.11328125 C-4.28173517 5.37175982 -2.16319353 2.6742232 0 0 Z " fill="#F0F0F6" transform="translate(201,240)"/>
<path d="M0 0 C3.3 0.33 6.6 0.66 10 1 C10 1.99 10 2.98 10 4 C10.66 4.33 11.32 4.66 12 5 C11.34 5 10.68 5 10 5 C11.25541557 7.51083114 12.50063488 7.87125446 15 9 C14.01 9.99 13.02 10.98 12 12 C9.99698881 10.19073245 7.99751914 8.377813 6 6.5625 C5.42765625 6.04623047 4.8553125 5.52996094 4.265625 4.99804688 C2.82480421 3.6858708 1.41014216 2.34509096 0 1 C0 0.67 0 0.34 0 0 Z " fill="#EBEDEF" transform="translate(49,134)"/>
<path d="M0 0 C10.19013453 5.60627803 10.19013453 5.60627803 12.17578125 9.0234375 C12.6875 10.9375 12.6875 10.9375 13 14 C12.01 14 11.02 14 10 14 C8.28125 12.13671875 8.28125 12.13671875 6.5 9.6875 C4.06753514 6.35651927 4.06753514 6.35651927 1.28125 3.33203125 C0 2 0 2 0 0 Z " fill="#343B4A" transform="translate(243,237)"/>
<path d="M0 0 C5.94 0 11.88 0 18 0 C15.32449708 2.67550292 13.05120106 2.83209389 9.375 3.625 C8.18648438 3.88539063 6.99796875 4.14578125 5.7734375 4.4140625 C4.85820312 4.60742188 3.94296875 4.80078125 3 5 C3 4.34 3 3.68 3 3 C3.66 3 4.32 3 5 3 C5 2.34 5 1.68 5 1 C3.35 1 1.7 1 0 1 C0 0.67 0 0.34 0 0 Z " fill="#E9EBF0" transform="translate(304,142)"/>
<path d="M0 0 C3 2 3 2 4 3.8125 C4 6 4 6 1.5625 8.75 C0.2940625 9.86375 0.2940625 9.86375 -1 11 C-2.23076923 4.6 -2.23076923 4.6 -1.0625 1.5625 C-0.711875 1.046875 -0.36125 0.53125 0 0 Z " fill="#2A3446" transform="translate(180,217)"/>
<path d="M0 0 C2.60018816 3.90028225 2.15085514 7.47434569 2 12 C1.01 12 0.02 12 -1 12 C-1.92470553 7.28400182 -2.22923777 4.32734391 0 0 Z " fill="#252E3E" transform="translate(148,136)"/>
<path d="M0 0 C0.94875 0.04125 1.8975 0.0825 2.875 0.125 C2.875 1.445 2.875 2.765 2.875 4.125 C3.535 4.785 4.195 5.445 4.875 6.125 C3.885 6.455 2.895 6.785 1.875 7.125 C0.05078125 6.12890625 0.05078125 6.12890625 -1.8125 4.6875 C-2.43511719 4.21441406 -3.05773437 3.74132812 -3.69921875 3.25390625 C-4.16972656 2.88136719 -4.64023438 2.50882813 -5.125 2.125 C-3.125 0.125 -3.125 0.125 0 0 Z " fill="#E9EBF0" transform="translate(93.125,163.875)"/>
<path d="M0 0 C1.485 0.99 1.485 0.99 3 2 C5.64632287 1.6878236 5.64632287 1.6878236 8 1 C6.71700242 3.86207152 5.469364 6.0245088 3 8 C2.01 8 1.02 8 0 8 C0 5.36 0 2.72 0 0 Z " fill="#2D394A" transform="translate(177,269)"/>
<path d="M0 0 C0.33 0.66 0.66 1.32 1 2 C-5.27 2 -11.54 2 -18 2 C-18 1.67 -18 1.34 -18 1 C-17.22914063 0.93941406 -16.45828125 0.87882813 -15.6640625 0.81640625 C-14.15972656 0.69072266 -14.15972656 0.69072266 -12.625 0.5625 C-11.62726563 0.48128906 -10.62953125 0.40007812 -9.6015625 0.31640625 C-2.10901288 -0.59484979 -2.10901288 -0.59484979 0 0 Z " fill="#D0D4DD" transform="translate(165,188)"/>
<path d="M0 0 C2.475 0.99 2.475 0.99 5 2 C5 5.3 5 8.6 5 12 C4.67 12 4.34 12 4 12 C3.9175 11.05125 3.835 10.1025 3.75 9.125 C3.34925077 5.89538209 3.34925077 5.89538209 0.9375 4.625 C0.298125 4.41875 -0.34125 4.2125 -1 4 C-0.67 2.68 -0.34 1.36 0 0 Z " fill="#49515F" transform="translate(265,265)"/>
<path d="M0 0 C-0.66 0.433125 -1.32 0.86625 -2 1.3125 C-2.66 1.869375 -3.32 2.42625 -4 3 C-4 3.99 -4 4.98 -4 6 C-5.98 6 -7.96 6 -10 6 C-10 5.34 -10 4.68 -10 4 C-9.34 3.67 -8.68 3.34 -8 3 C-8.66 2.34 -9.32 1.68 -10 1 C-3.71428571 -1.42857143 -3.71428571 -1.42857143 0 0 Z " fill="#323B4F" transform="translate(319,145)"/>
<path d="M0 0 C0.33 0.66 0.66 1.32 1 2 C-0.21484375 4.3828125 -0.21484375 4.3828125 -1.9375 7.125 C-2.50339844 8.03507813 -3.06929687 8.94515625 -3.65234375 9.8828125 C-4.09707031 10.58148438 -4.54179687 11.28015625 -5 12 C-5.99 11.67 -6.98 11.34 -8 11 C-5.36 7.37 -2.72 3.74 0 0 Z " fill="#DADBE3" transform="translate(196,246)"/>
<path d="M0 0 C0.99 0 1.98 0 3 0 C3.185625 1.2065625 3.185625 1.2065625 3.375 2.4375 C3.58125 3.283125 3.7875 4.12875 4 5 C4.66 5.33 5.32 5.66 6 6 C5.67 7.32 5.34 8.64 5 10 C0 4.5 0 4.5 0 0 Z " fill="#2C3445" transform="translate(293,239)"/>
<path d="M0 0 C1.32 0.33 2.64 0.66 4 1 C3.34 1 2.68 1 2 1 C1.938125 1.598125 1.87625 2.19625 1.8125 2.8125 C0.6763243 5.87143458 -1.17330142 6.55041099 -4 8 C-3.40072174 4.64404172 -2.15377564 2.62198774 0 0 Z " fill="#E7E9EF" transform="translate(150,243)"/>
<path d="M0 0 C0.66 0.33 1.32 0.66 2 1 C-2.18461538 6.78461538 -2.18461538 6.78461538 -6.3125 7.875 C-7.6428125 7.936875 -7.6428125 7.936875 -9 8 C-6.14723863 5.06799526 -3.34920216 2.35684596 0 0 Z " fill="#40444E" transform="translate(201,238)"/>
<path d="M0 0 C0.66 0.33 1.32 0.66 2 1 C2 1.66 2 2.32 2 3 C2.66 3.33 3.32 3.66 4 4 C-0.75 8 -0.75 8 -3 8 C-1.125 2.25 -1.125 2.25 0 0 Z " fill="#CED4DE" transform="translate(184,264)"/>
<path d="M0 0 C0.66 0 1.32 0 2 0 C2 0.66 2 1.32 2 2 C4.475 2.99 4.475 2.99 7 4 C7 4.66 7 5.32 7 6 C7.66 6.33 8.32 6.66 9 7 C4.94519369 7 3.15167025 5.45129908 0 3 C0 2.01 0 1.02 0 0 Z " fill="#E7E9F0" transform="translate(252,241)"/>
<path d="M0 0 C0.99 0.66 1.98 1.32 3 2 C1.375 4 1.375 4 -1 6 C-4.25 6.25 -4.25 6.25 -7 6 C-4.74259377 3.66475218 -2.7194239 1.81294927 0 0 Z " fill="#303A4A" transform="translate(186,249)"/>
<path d="M0 0 C-1.65 1.65 -3.3 3.3 -5 5 C-5.66 3.68 -6.32 2.36 -7 1 C-3.375 -1.125 -3.375 -1.125 0 0 Z " fill="#242C3D" transform="translate(197,246)"/>
<path d="M0 0 C4.455 2.97 4.455 2.97 9 6 C8.67 6.66 8.34 7.32 8 8 C4.63820226 6.55922954 2.40843732 4.75249979 0 2 C0 1.34 0 0.68 0 0 Z " fill="#4D5059" transform="translate(243,237)"/>
<path d="M0 0 C1.32 0.33 2.64 0.66 4 1 C4 3.97 4 6.94 4 10 C3.01 9.67 2.02 9.34 1 9 C1.20625 8.443125 1.4125 7.88625 1.625 7.3125 C2.10695211 4.340462 1.26565028 2.68020059 0 0 Z " fill="#1E2637" transform="translate(265,268)"/>
<path d="M0 0 C2.91387197 0.2913872 3.82565583 0.79452294 5.75 3.0625 C6.1625 3.701875 6.575 4.34125 7 5 C5.68 5 4.36 5 3 5 C3 4.34 3 3.68 3 3 C1.68 2.34 0.36 1.68 -1 1 C-0.67 0.67 -0.34 0.34 0 0 Z " fill="#2C3444" transform="translate(175,194)"/>
<path d="M0 0 C0.66 1.32 1.32 2.64 2 4 C0.68 5.65 -0.64 7.3 -2 9 C-2 6.36 -2 3.72 -2 1 C-1.34 0.67 -0.68 0.34 0 0 Z " fill="#1D2737" transform="translate(180,266)"/>
<path d="M0 0 C1.32 0.33 2.64 0.66 4 1 C3.67 2.65 3.34 4.3 3 6 C2.34 5.67 1.68 5.34 1 5 C1.33 4.34 1.66 3.68 2 3 C0.35 3.33 -1.3 3.66 -3 4 C-2.01 2.68 -1.02 1.36 0 0 Z " fill="#F2EFF3" transform="translate(154,239)"/>
<path d="M0 0 C0.99 0.33 1.98 0.66 3 1 C3 1.99 3 2.98 3 4 C3.66 4.66 4.32 5.32 5 6 C4.34 6 3.68 6 3 6 C2.67 6.66 2.34 7.32 2 8 C0.79371992 5.66785852 -0.1654738 3.50357861 -1 1 C-0.67 0.67 -0.34 0.34 0 0 Z " fill="#1D2939" transform="translate(290,233)"/>
<path d="M0 0 C0.99 0.33 1.98 0.66 3 1 C3 1.99 3 2.98 3 4 C2.34 4 1.68 4 1 4 C0.67 4.66 0.34 5.32 0 6 C-0.66 5.67 -1.32 5.34 -2 5 C-1.34 3.35 -0.68 1.7 0 0 Z " fill="#EFEFF0" transform="translate(187,259)"/>
<path d="M0 0 C1.2065625 0.0309375 1.2065625 0.0309375 2.4375 0.0625 C2.7675 1.0525 3.0975 2.0425 3.4375 3.0625 C1.4575 3.3925 -0.5225 3.7225 -2.5625 4.0625 C-2.8925 3.0725 -3.2225 2.0825 -3.5625 1.0625 C-2.5625 0.0625 -2.5625 0.0625 0 0 Z " fill="#EDEBED" transform="translate(243.5625,233.9375)"/>
<path d="M0 0 C2.64 0.66 5.28 1.32 8 2 C7.67 2.66 7.34 3.32 7 4 C6.01 4.33 5.02 4.66 4 5 C1.8125 3.6875 1.8125 3.6875 0 2 C0 1.34 0 0.68 0 0 Z " fill="#E6E8EC" transform="translate(262,249)"/>
<path d="M0 0 C2.97 1.98 2.97 1.98 6 4 C2.71023192 5.09658936 1.28696233 4.79953138 -2 4 C-2 3.01 -2 2.02 -2 1 C-1.34 0.67 -0.68 0.34 0 0 Z " fill="#2F3949" transform="translate(66,149)"/>
<path d="M0 0 C3.65316671 1.24976756 4.78065836 1.67098753 7 5 C6.01 5.495 6.01 5.495 5 6 C4.01 5.34 3.02 4.68 2 4 C2 3.34 2 2.68 2 2 C1.34 2 0.68 2 0 2 C0 1.34 0 0.68 0 0 Z " fill="#323A47" transform="translate(50,137)"/>
<path d="M0 0 C0.66 0 1.32 0 2 0 C1.67 3.3 1.34 6.6 1 10 C0.67 10 0.34 10 0 10 C0 7.69 0 5.38 0 3 C-0.66 2.67 -1.32 2.34 -2 2 C-1.34 1.34 -0.68 0.68 0 0 Z " fill="#2D3648" transform="translate(145,130)"/>
</svg>
