<svg xmlns="http://www.w3.org/2000/svg" xmlns:xlink="http://www.w3.org/1999/xlink" version="1.1" x="0px" y="0px" viewBox="0 0 100 100" enable-background="new 0 0 100 100" xml:space="preserve"><g display="none"><path display="inline" fill="#000000" d="M95,25.581v19.542c0,1.424-0.717,2.581-1.597,2.581h-0.46   c-0.881,0-1.596-1.157-1.596-2.581v-5.692h-1.34v3.855c0,0.998-0.81,1.808-1.808,1.808h-0.447c-0.998,0-1.809-0.81-1.809-1.808   v-3.695h-2.536v0.646c0.014,0.613,0.014,1.182,0,1.706v5.578c0,0.505-0.858,0.96-2.242,1.293l0.038,26.301h10.451   c0.839,0,1.519,0.684,1.519,1.521v2.318c0,0.842-0.68,1.523-1.519,1.523H7.346c-0.842,0-1.525-0.682-1.525-1.523v-2.318   c0-0.838,0.684-1.521,1.525-1.521H53.6c0,0,0,0,5.957-18.053c3.914-12.902,0.081-17.358-24.01-16.814   c-13.76,0-17.377,9.972-17.377,12.832v4.004c0,0.986-0.8,1.785-1.785,1.785H14.64v5.08h-0.288v1.959h-0.577v-1.959h-0.288h-2.57   v-1.158h2.57v-3.922h-0.06h-1.76c-0.988,0-1.788-0.799-1.788-1.785V26.833c0-0.989,0.8-1.787,1.788-1.787h4.717   c0.985,0,26.805,9.478,45.529-0.481c0-0.013-0.099-0.936,0.692-0.936h6.947h4.795h1.13c0.005,0,0.007,0.004,0.012,0.004   c0.06-0.001,0.114-0.004,0.173-0.004c5.574,0,7.746,0,7.746,1.842v5.8h1.543h0.993v-3.804c0-0.998,0.812-1.807,1.809-1.807H88.2   c0.998,0,1.808,0.81,1.808,1.807v3.804h1.34v-5.69c0-1.426,0.715-2.581,1.596-2.581h0.46C94.283,23,95,24.155,95,25.581z"/></g><g display="none"><path display="inline" fill="#000000" d="M88.041,75.968v-1.26c-0.211-10.149-4.229-13.531-4.229-13.531H59.42   c0,0-0.951-0.847-1.162-3.383V43.206c0,0,0.211-14.164-12.473-11.415c0,0-8.139,1.479-11.959,1.151   c-0.169-1.159-0.804-2.164-1.714-2.819l0.018-1.058c0-0.6-0.601-0.584-0.601-0.584l0.01-1.393c0.863,0,1.56-0.701,1.56-1.563   c0-0.863-0.697-1.562-1.56-1.562h-0.583h-0.591c-0.144,0-0.257-0.021-0.349-0.056c0.211-0.099,0.404-0.225,0.578-0.375   c3.489-0.386,16.739-2.412,16.739-2.412c1.383-0.19,2.351-1.464,2.163-2.848c-0.188-1.383-1.464-2.353-2.848-2.165   c-0.079,0.012-0.155,0.026-0.23,0.044v-0.002l-15.646,3.85c-0.451-0.48-1.086-0.779-1.793-0.779c-1.36,0-2.459,1.101-2.459,2.459   c0,0.104,0.008,0.205,0.021,0.304v6.497h-1.425c-0.678,0-0.529,0.609-0.529,0.609v0.994c-1.098,0.765-1.816,2.032-1.816,3.47v16.63   c0,2.113,1.552,3.86,3.579,4.172v1.93h-1.024v-0.421c0-0.238-0.234-0.428-0.524-0.428c-0.288,0-0.521,0.189-0.521,0.428v2.021   c0,0.238,0.233,0.429,0.521,0.429c0.29,0,0.524-0.19,0.524-0.429v-0.422h1.024v1.509l0.702,0.812h0.303v1.395H16.187   c0,0-4.017,3.382-4.228,13.531v1.26l-2.325,2.257v5.692h80.734v-5.693L88.041,75.968z M27.888,21.676   c0-0.572,0.465-1.033,1.033-1.033c0.575,0,1.037,0.461,1.037,1.033s-0.462,1.035-1.037,1.035   C28.353,22.71,27.888,22.248,27.888,21.676z M45.004,57.881c0,0-0.276,3.296-1.968,3.296H28.954v-1.395h0.303l0.702-0.832v-1.488   h1.025v0.422c0,0.238,0.233,0.429,0.521,0.429s0.524-0.19,0.524-0.429v-2.021c0-0.238-0.236-0.428-0.524-0.428   s-0.521,0.189-0.521,0.428v0.421h-1.025v-1.89c2.19-0.161,3.916-1.983,3.916-4.212v-6.764h9.373c0,0,2.148-0.029,2.148,2.889   L45.004,57.881z"/></g><g display="none"><path display="inline" fill="#000000" d="M92.882,58.144v2.353c0,0.161-0.088,0.308-0.23,0.382   c-0.075,0.04-7.535,3.954-17.096,5.022c-3.344,0.374-6.72,0.563-10.033,0.563c-1.617,0-3.219-0.046-4.76-0.136   c-4.136-0.246-7.914-0.825-10.926-1.674c-5.812-1.637-9.728-2.298-10.79-2.461c-0.008,0-3.821-0.69-8.621-0.719l-1.355,3.982   c-0.059,0.176-0.224,0.294-0.411,0.294L8.31,65.746c-0.239,0-0.435-0.195-0.435-0.435v-8.204c0-0.193,0.127-0.362,0.312-0.418   c0.183-0.052,0.383,0.022,0.487,0.183l-0.016-0.011c0.038,0.057,1.027,1.614,3.952,1.781c2.704,0.161,12.021-0.133,12.021-0.133   c2.216,0,9.509-0.046,14.744,0.87c1.13,0.17,5.212,0.845,11.271,2.555c3.942,1.111,9.073,1.699,14.837,1.699   c3.206,0,6.484-0.186,9.744-0.548c8.416-0.939,15.94-4.818,16.795-5.247l0.213-0.073c0.132-0.068,0.302-0.065,0.431,0.014   C92.796,57.856,92.882,57.992,92.882,58.144z M13.881,57.776c0,0,4.432,0.111,11.47-0.124c0,0,2.877-0.059,6.927,0.191   c2.229,0.113,4.59,0.31,6.674,0.648c3.071,0.413,6.269,1.027,9.177,1.939c0.798,0.208,1.631,0.43,2.517,0.681   c3.926,1.106,9.032,1.695,14.767,1.699c3.132-0.082,6.318-0.328,9.394-0.673c9.253-1.031,15.825-4.533,15.825-4.533   c1.005-0.461,0.861-1.611,0.861-1.611c-0.142-2.652-1.944-3.983-1.944-3.983c-0.772-0.957-4.812-1.182-6.64-0.957   c-5.335,0.68-11.907-1.093-11.907-1.093c-3.02-0.611-8.3-3.916-11.891-6.349l-2.804,2.804c-0.085,0.085-0.195,0.127-0.307,0.127   c-0.109,0-0.223-0.042-0.307-0.127c-0.17-0.169-0.17-0.444,0-0.614l2.688-2.689c-1.814-1.247-3.056-2.168-3.056-2.168   c-0.002-0.002-0.006-0.003-0.008-0.005l-3.234,3.235c-0.085,0.085-0.195,0.128-0.308,0.128s-0.223-0.042-0.308-0.128   c-0.17-0.17-0.17-0.444,0-0.614l3.137-3.135c-1.058-0.765-2.086-1.445-3.078-2.051l-3.5,3.501   c-0.085,0.084-0.195,0.127-0.308,0.127s-0.223-0.042-0.308-0.127c-0.169-0.17-0.169-0.445,0-0.615l3.35-3.348   c-6.372-3.713-11.008-4.286-11.008-4.286c-0.905-0.331-1.089,0.36-1.089,0.36l0.011,1.121c-2.021,0.755-7.055,1.494-12.138,1.968   c-6.566,0.611-13.234-1.176-15.626-1.56c-0.736-0.117-0.998,0.536-0.998,0.536l-0.621,1.464c0,0-3.081,8.128-1.91,13.742   c0,0,0.044,0.79,0.305,2.007C7.946,54.486,8.744,58.015,13.881,57.776z"/></g><g display="none"><path display="inline" fill="#000000" d="M92.62,62.555v2.337c0,0.161-0.088,0.307-0.229,0.381c-0.074,0.04-7.49,3.93-16.994,4.992   c-3.324,0.371-6.681,0.561-9.975,0.561c-1.606,0-3.198-0.045-4.729-0.135c-4.112-0.245-7.868-0.819-10.862-1.665   c-5.778-1.626-9.67-2.283-10.726-2.445c-0.009,0-3.798-0.687-8.569-0.715l-1.348,3.958c-0.059,0.175-0.222,0.295-0.408,0.295   l-20.23-0.007c-0.238,0-0.432-0.193-0.432-0.431v-8.157c0-0.191,0.126-0.359,0.31-0.414c0.182-0.053,0.381,0.022,0.484,0.18   l-0.016-0.011c0.038,0.059,1.021,1.606,3.929,1.772c2.688,0.16,11.949-0.132,11.949-0.132c2.203,0,9.454-0.046,14.657,0.865   c1.123,0.169,5.181,0.838,11.205,2.537c3.917,1.105,9.018,1.69,14.749,1.69c3.188,0,6.446-0.185,9.686-0.544   c8.368-0.935,15.847-4.791,16.698-5.217l0.21-0.072c0.132-0.068,0.301-0.067,0.428,0.013C92.535,62.27,92.62,62.403,92.62,62.555z    M14.088,62.188c0,0,4.405,0.11,11.401-0.124c0,0,2.86-0.057,6.887,0.191c2.215,0.112,4.564,0.309,6.634,0.645   c3.053,0.412,6.232,1.021,9.123,1.929c0.795,0.206,1.622,0.427,2.503,0.677c3.902,1.1,8.977,1.685,14.679,1.688   c3.113-0.08,6.281-0.324,9.337-0.667C83.85,65.5,90.384,62.02,90.384,62.02c0.999-0.459,0.857-1.603,0.857-1.603   c-0.142-2.636-1.934-3.959-1.934-3.959c-0.769-0.952-4.782-1.175-6.602-0.952c-5.302,0.677-11.835-1.086-11.835-1.086   c-3.003-0.607-8.251-3.893-11.822-6.312l-0.004,0.003c-0.026-0.02-0.036-0.045-0.064-0.063c-0.605-0.396-1.377-1.082-2.231-1.927   l-2.991,1.704c-0.103,0.059-0.219,0.071-0.327,0.042c-0.105-0.029-0.201-0.099-0.261-0.203c-0.118-0.207-0.046-0.472,0.162-0.59   l2.781-1.585c-0.795-0.821-1.656-1.772-2.54-2.789L50.3,44.567c-0.104,0.059-0.221,0.07-0.329,0.042   c-0.106-0.031-0.2-0.101-0.26-0.203c-0.117-0.208-0.045-0.471,0.161-0.589l3.126-1.781c-0.781-0.911-1.57-1.857-2.347-2.81   l-3.635,2.067c-0.104,0.06-0.221,0.07-0.329,0.042c-0.106-0.03-0.2-0.099-0.26-0.204c-0.118-0.207-0.045-0.471,0.162-0.589   l3.507-1.997c-3.251-4.023-6.117-7.912-6.575-8.672c-0.829-1.383-5.805-0.321-6.717-0.116v-0.002   c-0.004,0.002-6.185,1.921-11.14,1.921c-6.729,0-11.915-0.061-14.293-0.441c-0.731-0.117-1.207,0.532-1.207,0.532l-0.402,1.456   c0,0-3.297,16.906-2.133,22.485c0,0,0.044,0.786,0.303,1.994C8.188,58.917,8.98,62.426,14.088,62.188z"/></g><g display="none"><path display="inline" d="M96.11,56.706c-0.365-2.827-2.403-4.112-2.403-4.112c-0.906-0.963-5.253-0.875-7.191-0.49   c-5.664,1.159-12.847-0.214-12.847-0.214c-5.313-0.666-17.071-10.228-17.071-10.228c-9.195-6.732-13.273-8.061-13.273-8.061   c-0.997-0.282-1.139,0.475-1.139,0.475l-2.161,18.43l0.277,0.125c0.911,0.248,1.697,0.831,2.235,1.618   c0.017,0.025,0.035,0.049,0.051,0.074c0.02,0.029,0.037,0.06,0.057,0.088c0.367,0.584,0.599,1.271,0.645,2.007   c0.009,0.109,0.014,0.22,0.014,0.331c0.006,2.054-1.354,3.771-3.162,4.174l-0.479,2.297c0.015,0.122,0.03,0.24,0.052,0.354   c0.67,0.049,5.069,0.398,11.955,1.797c7.49,1.513,17.729,1.019,27.049-0.733c9.835-1.852,16.601-6.134,16.601-6.134   C96.358,57.93,96.11,56.706,96.11,56.706z M43.975,44.068c-0.483,0-0.872-0.39-0.872-0.872c0-0.48,0.389-0.87,0.872-0.87   c0.481,0,0.87,0.39,0.87,0.87C44.845,43.679,44.457,44.068,43.975,44.068z M45.688,58.204c-0.483,0-0.872-0.39-0.872-0.87   c0-0.481,0.389-0.871,0.872-0.871c0.481,0,0.871,0.39,0.871,0.871C46.558,57.814,46.168,58.204,45.688,58.204z M66.542,63.588   c-0.48,0-0.87-0.39-0.87-0.869c0-0.484,0.39-0.872,0.87-0.872c0.482,0,0.871,0.388,0.871,0.872   C67.413,63.198,67.024,63.588,66.542,63.588z M36.671,53.498c-0.212,0.007-0.421,0.033-0.621,0.077l-0.132-0.474L28.47,42.71   l-2.078-2.491l-2.37,0.637c-5.759,2.006-14.187,2.2-16.785,2.116C6.43,42.946,6.24,43.678,6.24,43.678L5.78,45.32   c0,0-2.192,9.089-0.184,14.911c0,0,0.156,0.835,0.597,2.099c0.439,1.266,1.764,4.926,7.209,3.976c0,0,4.741-0.48,12.21-1.684   c0,0,6.459-0.887,11.218-0.98l0.604-3.451l0.241,0.044v-0.003c1.502-0.405,2.582-1.797,2.531-3.419   C40.146,54.921,38.564,53.439,36.671,53.498z M25.064,44.468c-0.48,0.015-0.883-0.364-0.897-0.845   c-0.015-0.48,0.362-0.883,0.845-0.897c0.48-0.016,0.882,0.362,0.897,0.843C25.924,44.05,25.546,44.451,25.064,44.468z    M33.288,58.349c-0.481,0.016-0.884-0.361-0.899-0.845c-0.017-0.479,0.362-0.883,0.842-0.896c0.482-0.016,0.884,0.36,0.9,0.843   C34.146,57.931,33.768,58.332,33.288,58.349z"/></g><g display="none"><path display="inline" d="M95.318,58.505c0,0-6.766,4.282-16.601,6.134c-9.32,1.752-19.559,2.246-27.049,0.733   c-6.886-1.398-11.285-1.748-11.955-1.797c-0.021-0.114-0.037-0.232-0.052-0.354l0.479-2.297c1.809-0.402,3.168-2.12,3.162-4.174   c0-0.111-0.005-0.222-0.014-0.331c-0.045-0.736-0.277-1.423-0.645-2.007c-0.02-0.028-0.037-0.059-0.057-0.088   c-0.016-0.025-0.034-0.049-0.051-0.074c-0.538-0.787-1.324-1.37-2.235-1.618l-0.277-0.125l2.161-18.43c0,0,0.142-0.757,1.139-0.475   c0,0,4.078,1.329,13.273,8.061c0,0,11.758,9.562,17.071,10.228c0,0,7.183,1.373,12.847,0.214c1.938-0.385,6.285-0.473,7.191,0.49   c0,0,2.038,1.285,2.403,4.112C96.11,56.706,96.358,57.93,95.318,58.505z M36.671,53.498c-0.212,0.007-0.421,0.033-0.621,0.077   l-0.132-0.474L28.47,42.71l-2.078-2.491l-2.37,0.637c-5.759,2.006-14.187,2.2-16.785,2.116C6.43,42.946,6.24,43.678,6.24,43.678   L5.78,45.32c0,0-2.192,9.089-0.184,14.911c0,0,0.156,0.835,0.597,2.099c0.439,1.266,1.764,4.926,7.209,3.976   c0,0,4.741-0.48,12.21-1.684c0,0,6.459-0.887,11.218-0.98l0.767-3.451L38,60.234v-0.003c1-0.405,2.419-1.797,2.369-3.419   C40.309,54.921,38.564,53.439,36.671,53.498z"/></g><g display="none"><path display="inline" d="M85.617,55.809c-0.906-7.248-8.412-6.544-8.412-6.544s-3.605-0.019-7.364,2.488   c-3.757,2.505-9.827,7.803-16.448,3.072c0,0-1.245-0.79-0.896-2.785c0.287-1.652,5.07-5.802,14.175-3.729   c0,0,9.289,2.911,13.597-0.837L90.56,36.375c0,0,1.646-1.463,2.707-1.523c0.181-0.009,0.345,0.021,0.482,0.105   c-0.078-0.048-0.137-0.084-0.137-0.084s0.812,0.471,1.024-0.337c0.211-0.811-1.58-2.622-4.817,0.289l-8.908,8.959   c0,0-3.022,4.066-8.168,2.985c-4.898-1.027-14.304-5.173-21.54,2.59l0.05-0.176l-31.527-6.392c0,0-10.122-1.771-14.48,1.372   l38.083,8.476L5.991,58.757c4.054,3.523,14.294,2.678,14.294,2.678l30.461-4.852c0.418,0.424,0.757,0.67,0.757,0.67   c1.311,1.714,6.669,3.237,6.669,3.237c7.169,9.754,18.896,5.234,18.896,5.234S86.521,63.055,85.617,55.809z M46.999,54.21   c-0.612-0.526-0.681-1.448-0.155-2.059c0.526-0.61,1.448-0.68,2.059-0.154c0.61,0.526,0.68,1.449,0.155,2.061   C48.532,54.668,47.609,54.736,46.999,54.21z M78.798,62.779c-10.214,4.319-15.845-0.448-15.845-0.448   c-3.312-2.249-2.843-3.229-0.893-3.575c1.946-0.345,5.057-1.645,7.593-3.659c2.536-2.013,3.933-2.521,3.933-2.521   c7.125-3.228,9.156,2.074,9.156,2.074C84.712,59.499,78.798,62.779,78.798,62.779z"/></g><g display="none"><path display="inline" d="M85.295,56.415c-0.577-6.954-7.771-6.581-7.771-6.581s-3.438-0.161-7.126,2.083   c-3.685,2.241-9.689,7.058-15.819,2.277c0,0-0.986-1.107-0.745-2.692c0.242-1.582,5.068-5.334,13.677-2.996   c0,0,8.748,3.147,13.009-0.26l11.594-11.178c0,0,1.628-1.331,2.645-1.346c0.174-0.001,0.328,0.035,0.456,0.12   c-0.074-0.049-0.128-0.086-0.128-0.086s0.757,0.481,0.991-0.282c0.233-0.766-1.404-2.565-4.609,0.084L81.279,44.75   c0,0-3.046,3.761-7.912,2.525c-4.578-1.16-13.234-5.405-20.396,1.356l0.015-0.171l-36.614-1.262c0,0-9.813,0.121-13.351,3.84   l29.95,1.375L3.503,52.949c3.411,3.834,13.215,4.282,13.215,4.282l36.401-0.316c1.661,1.511,5.796,2.878,5.796,2.878   c6.456,9.593,17.828,5.744,17.828,5.744S85.871,63.364,85.295,56.415z M49.379,53.85c-0.624-0.525-0.701-1.462-0.173-2.086   c0.529-0.624,1.462-0.701,2.087-0.171c0.623,0.526,0.699,1.461,0.172,2.085S50.002,54.38,49.379,53.85z M78.509,62.797   c-9.92,3.716-15.649-1.478-15.649-1.478c-1.587-0.949-2.037-2.774-0.164-3.026c1.871-0.253,4.892-1.371,7.393-3.19   c2.5-1.819,3.851-2.252,3.851-2.252c6.93-2.797,8.659,2.342,8.659,2.342C84.284,59.899,78.509,62.797,78.509,62.797z"/></g><g display="none"><path display="inline" d="M76.043,42.034v13.901c0,0-2.647-1.528-6.221-1.652v-2.354h-1.288V54.3   c-1.264,0.084-2.607,0.374-3.973,0.963v-3.981h-1.289v4.559c-1.741,0.802-3.105,0.988-4.021,0.946   c0.079-0.262,0.146-0.528,0.146-0.819V44.034c0-0.643-0.227-1.211-0.599-1.725c1.384,0.122,3.122,0.033,5.015-0.708   C68.551,39.742,75.1,40.732,76.043,42.034z M57.968,43.371c0.091,0.21,0.141,0.432,0.141,0.663v11.933   c0,0.21-0.052,0.408-0.127,0.602c-0.465,1.192-2.311,2.063-4.759,2.689v-3.18h-1.287v3.476c-1.473,0.306-3.094,0.537-4.733,0.71   v-5.314h-1.289v5.438c-2.004,0.173-3.976,0.261-5.673,0.285v-3.465h-1.289v3.474c-1.641-0.005-3.617-0.071-5.672-0.223v-5.51   h-1.288v5.402c-1.889-0.174-3.778-0.428-5.484-0.773v-3.5h-1.288v3.208c-2.909-0.729-5.006-1.79-5.006-3.319V44.034   c0-3.731,12.395-4.716,18.947-4.716c4.93,0,13.164,0.559,16.94,2.424c0.001,0,0.001,0,0.001,0c0.025,0.012,0.045,0.027,0.067,0.039   c0.282,0.143,0.544,0.29,0.771,0.448c0.017,0.011,0.028,0.026,0.046,0.038c0.223,0.159,0.424,0.327,0.585,0.504   c0.038,0.041,0.052,0.088,0.087,0.131C57.78,43.055,57.896,43.207,57.968,43.371z M34.308,44.034c0,0.399,2.173,0.725,4.852,0.725   s4.852-0.325,4.852-0.725s-2.172-0.725-4.852-0.725S34.308,43.635,34.308,44.034z M56.149,46.235l-0.402-0.759   c-2.671,1.416-9.338,2.369-16.587,2.369c-7.224,0-13.689-0.907-16.474-2.312L22.3,46.303c2.896,1.46,9.514,2.402,16.86,2.402   C46.652,48.705,53.321,47.735,56.149,46.235z M77.253,42.518v13.854l2.534,1.683V44.2L77.253,42.518z"/></g><g display="none"><path display="inline" fill="#000000" d="M37.994,67.719L61.13,47.605v10.421L43.985,72.933h-4.486   c-0.831,0-1.505-0.676-1.505-1.505V67.719z M61.13,28.801c0-0.83-0.681-1.506-1.511-1.506h-1.531L37.994,44.768v9.572L61.13,34.226   V28.801z M59.619,72.933c0.83,0,1.511-0.676,1.511-1.505v-2.267l-4.339,3.771H59.619z M45.26,76.176h7.87v-3.243h1.954l6.046-5.254   v-8.166L45.26,73.31V76.176z M39.499,27.295c-0.831,0-1.505,0.676-1.505,1.506v3.062l5.254-4.568H39.499z M53.13,27.295v-3.471   h-7.87v3.471h-0.307l-6.959,6.051v9.937l18.387-15.987H53.13z M73.473,34.026c-0.342,0.3-0.693,0.581-1.039,0.842l-0.91,0.862   L61.13,44.137v1.983L37.994,66.234v-3.36L22.759,75.228l15.234-14.767v-4.637L61.13,35.712v2.441l6.288-6.035l2.355-2.052   c0.048-0.043,0.085-0.083,0.129-0.123c0.052-0.046,0.105-0.079,0.159-0.124l1.254-1.092l0.719-0.512c0,0,3.117-2.603,4.721-1.039   c0.043,0.042,0.071,0.103,0.105,0.153c0.027,0.024,0.063,0.034,0.084,0.058C77.931,28.514,76.377,31.485,73.473,34.026z    M75.354,28.736c-0.435-0.493-1.918,0.094-3.312,1.316c-1.4,1.224-2.177,2.612-1.747,3.107c0.436,0.496,1.918-0.095,3.314-1.315   C75.008,30.624,75.785,29.231,75.354,28.736z"/></g><g display="none"><g display="inline"><path d="M93.928,44.49c-3.945-6.07-12.553-6.879-12.553-6.879c-9.439-0.682-13.14,5.765-13.14,5.765h-5.059    c0,0-2.784,0.269-8.299-2.189c-6.766-2.777-17.786-11.194-33.88-12.68c0,0-5.524-0.89-14.63,0.93c0,0-2.062,1.194,0.062,1.599    c14.262-1.517,22.859,1.618,27.31,3.136c4.452,1.518,12.645,6.878,12.645,6.878c4.156,2.875,9.884,4.917,9.884,4.917l5.593,2.265    l0.293,0.146c-1.027,1.067-3.804,2.439-3.804,2.439c-4.946,1.996-18.828,10.759-18.828,10.759l-4.078,2.083    c-9.026,4.425-14.148,5.006-14.148,5.006c-2.426,0.909-12.847,0.606-12.847,0.606c-2.022,1.111,0,2.123,0,2.123    c8.194,0.709,13.151,0,13.151,0C32.001,70.3,48.806,60.885,48.806,60.885s6.869-4.376,12.32-6.075    c3.751-1.169,5.302-2.483,5.891-3.152h6.17l-1.216,7.549l0.317,0.355c0,0,7.866,0,8.215,0c0.184,0,0.23-0.271,0.23-0.271    l-1.243-8.01l1.416-0.02c0,0,5.322,0.02,10.493,5.266c0,0,0.875,1.116,1.617,0.606c0.87-0.598-2.84-8.064-12.051-9.582    l-6.122-0.506l-1.746-1.375c0,0,1.207-0.914,1.51-1.079c2.319-1.583,5.562-1.821,5.562-1.821s5.841-0.821,10.135,1.562    l2.898,1.776C95.391,47.38,93.928,44.49,93.928,44.49z M68.285,43.349C68.419,43.274,68.75,43.091,68.285,43.349L68.285,43.349z     M68.901,49.08c-0.86,0-1.559-0.695-1.559-1.556s0.698-1.557,1.559-1.557c0.857,0,1.554,0.697,1.554,1.557    S69.759,49.08,68.901,49.08z"/></g></g><g display="none"><g display="inline"><path d="M86.349,81.758c0.005,0.218-0.071,0.428-0.218,0.586l-4.819,4.789c-0.153,0.165-0.354,0.252-0.562,0.26    c-0.21,0.008-0.42-0.064-0.586-0.217L32.169,34.083l-7.382,8.104c-2.076,2.124-1.647,5.161-1.647,5.161l0.199,0.746    c0.058,0.197,0.035,0.409-0.063,0.588l-0.661,1.422c-0.101,0.189-0.267,0.318-0.455,0.373c-0.195,0.06-0.404,0.041-0.592-0.062    l-7.51-4.267c-0.181-0.098-0.317-0.264-0.375-0.458c-0.06-0.199-0.034-0.411,0.064-0.591l1.333-1.77    c0.096-0.18,0.264-0.319,0.461-0.375l0.906-0.269c0,0,3.387-0.775,5.814-7.502c0,0,2.048-6.133,4.501-8.844    c2.454-2.709,6.024-4.383,11.919-5.196c5.894-0.814,11.137-3.207,11.137-3.207s3.425-1.544,6.249-5.071l0.757-0.257l0.61,0.674    l-0.443,2.412l-3.401,3.165c0,0-5.302,4.503-12.903,7.852c-2.226,0.979-4.099,2.541-4.162,2.594L86.09,81.19    C86.247,81.34,86.341,81.54,86.349,81.758z"/></g></g><g display="none"><path display="inline" d="M79.774,65.739c0.575,0.674,0.526,1.223,0.526,1.223v5.868H69.05c0,0-2.017-0.039-2.805-1.47   c0,0-2.072-3.401-11.217-3.095H54.21c-9.145-0.307-11.216,3.095-11.216,3.095c-0.789,1.431-2.805,1.47-2.805,1.47h-11.25v-5.868   c0,0-0.051-0.549,0.526-1.223l4.24-4.885c0.165-0.221,0.658-0.344,0.658-0.344l2.167-0.648h35.496l2.847,0.648   c0,0,0.493,0.123,0.658,0.344L79.774,65.739z M38.21,27.17v1.431c0,0-0.689,0.888-3.551,0.888h-2.106v1.281H15.919   c0,0-2.386-0.08-10.36-0.548l-1.262-0.1c-0.033-0.003-0.067-0.006-0.101-0.006c-0.414,0-0.75,0.336-0.75,0.751   c0,0.155,0.047,0.3,0.127,0.421l0.072,0.105c0,0,8.901,14.702,28.531,14.9l4.15,0.019c3.892,0,7.354,3.325,7.354,7.215   c0,2.142-1.196,4.004-2.956,4.956h27.663c-1.925-1.339-3.184-3.568-3.184-6.087c0-5.117,4.669-14.376,21.289-17.188l6.854-1.529   c0,0,2.466-0.295,2.466-1.825v-1.232l0.74-0.739V27.17H38.21z"/></g><g display="none"><g display="inline"><path d="M66.856,54.245c0-0.229,0.001-0.461,0.003-0.69c0.371-3.987,4.125-5.833,8.338-5.857V28.483H29.894v20.544l3.75,0.001    c4.475,0,8.458,2.045,8.458,6.518c0,2.433-1.343,4.548-3.326,5.655H70.46C68.281,59.657,66.856,57.118,66.856,54.245z"/><path d="M29.205,31.151L23.16,31.15v1.474H12.479c0,0-9.083-0.035-9.122-0.035c-0.478,0-0.864,0.386-0.864,0.863    c0,0.178,0.054,0.344,0.147,0.482c0,0,4.284,12.589,26.563,12.94V31.151z"/><polygon points="78.604,28.45 75.886,28.45 75.886,47.697 77.781,47.697 86.463,40.273 92.138,40.273 92.138,34.361   "/><path d="M73.023,61.891H36.778l-6.889,4.637c-0.662,0.775-0.604,1.406-0.604,1.406v4.787h10.422l1.604-1.691h27.177l1.604,1.691    h10.424v-4.787c0,0,0.058-0.631-0.605-1.406L73.023,61.891z"/></g></g><g><path d="M92.676,34.299v5.946h-5.707l-8.735,7.469h-2.513c-4.273,0-8.099,2.376-8.476,6.414c-0.001,0.233-0.001-0.058-0.001,0.173   c0,2.891,1.432,5.444,3.623,6.999l9.511,4.841c0.666,0.78,0.607,1.415,0.607,1.415v4.815H70.5l-1.614-1.702h-27.34l-1.614,1.702   H29.446v-4.815c0,0-0.058-0.635,0.607-1.415l8.981-4.865h0.002c1.971-1.121,3.304-3.234,3.304-5.663   c0-4.502-4.008-6.558-8.509-6.558l-4.121-0.001l-0.004-2.159C6.994,46.666,2.643,33.87,2.643,33.87   c-0.094-0.139-0.148-0.306-0.148-0.485c0-0.48,0.389-0.869,0.869-0.869c0.04,0,9.176,0.036,9.176,0.036h10.745v-1.484l6.546,0.002   v-2.684l54.295,0.078L92.676,34.299z"/></g></svg>