<svg xmlns="http://www.w3.org/2000/svg" xmlns:xlink="http://www.w3.org/1999/xlink" xml:space="preserve" version="1.0" style="shape-rendering:geometricPrecision;text-rendering:geometricPrecision;image-rendering:optimizeQuality;" viewBox="0 0 5090 5090" x="0px" y="0px" fill-rule="evenodd" clip-rule="evenodd"><g><path class="fil0" d="M2072 2085c0,110 -89,199 -198,199 -110,0 -199,-89 -199,-199 0,-240 97,-457 254,-614 157,-157 374,-254 614,-254 240,0 457,97 614,254 157,157 254,374 254,614 0,240 -97,457 -254,614 -112,112 -255,194 -415,231l0 86c0,110 -89,199 -199,199 -110,0 -199,-89 -199,-199l0 -262c0,-109 89,-198 199,-198 130,0 248,-53 333,-138 85,-85 138,-203 138,-333 0,-130 -53,-248 -138,-333 -85,-85 -203,-138 -333,-138 -130,0 -248,53 -333,138 -85,85 -138,203 -138,333zm451 1787c-110,0 -199,-88 -199,-198 0,-110 89,-199 199,-199l44 0c110,0 199,89 199,199 0,110 -89,198 -199,198l-44 0zm22 820c593,0 1130,-240 1518,-629 389,-388 629,-925 629,-1518 0,-593 -240,-1130 -629,-1519 -388,-388 -925,-629 -1518,-629 -593,0 -1130,241 -1519,629 -388,389 -629,926 -629,1519 0,593 241,1130 629,1518 389,389 926,629 1519,629zm1799 -348c-460,461 -1097,746 -1799,746 -703,0 -1339,-285 -1800,-746 -460,-460 -745,-1097 -745,-1799 0,-703 285,-1339 745,-1800 461,-460 1097,-745 1800,-745 702,0 1339,285 1799,745 461,461 746,1097 746,1800 0,702 -285,1339 -746,1799z" fill="currentColor"/></g></svg>