<svg xmlns="http://www.w3.org/2000/svg" version="1.1" viewBox="-5.0 -5.0 110.0 110.0">
 <path d="m59.293 42.789c5.8086 6.8633 5.7969 17.496-1 24.293l-17.684 17.684c-6.9766 6.9766-18.398 6.9766-25.375 0s-6.9766-18.398 0-25.375l10.305-10.305c1.4844-1.4844 3.9102-1.4844 5.3945 0 1.4844 1.4844 1.4844 3.9102 0 5.3945l-10.305 10.305c-4.0117 4.0117-4.0117 10.57 0 14.582 4.0117 4.0117 10.57 4.0117 14.582 0l17.684-17.684c3.8828-3.8828 3.9336-9.9961 0.57031-13.965-3.2305-3.8086 2.5469-8.8086 5.8242-4.9336zm25.473-27.559c-6.9766-6.9766-18.398-6.9766-25.375 0l-17.684 17.684c-6.7969 6.7969-6.8086 17.426-1 24.293 3.2773 3.875 9.0547-1.125 5.8242-4.9336-3.3633-3.9688-3.3086-10.082 0.57031-13.965l17.684-17.684c4.0117-4.0117 10.57-4.0117 14.582 0 4.0117 4.0117 4.0117 10.57 0 14.582l-10.305 10.305c-1.4844 1.4844-1.4844 3.9102 0 5.3945s3.9102 1.4844 5.3945 0l10.305-10.305c6.9766-6.9766 6.9766-18.398 0-25.375z" fill="currentColor" fill-rule="evenodd"/>
</svg>