<?xml version="1.0" encoding="UTF-8"?>
<svg version="1.1" xmlns="http://www.w3.org/2000/svg" viewBox="0 0 128 128">
<path d="M0 0 C37.62 0 75.24 0 114 0 C114 2.31 114 4.62 114 7 C116.31 7 118.62 7 121 7 C121 42.31 121 77.62 121 114 C118.69 114 116.38 114 114 114 C114 116.31 114 118.62 114 121 C76.38 121 38.76 121 0 121 C0 118.69 0 116.38 0 114 C-2.31 114 -4.62 114 -7 114 C-7 78.69 -7 43.38 -7 7 C-4.69 7 -2.38 7 0 7 C0 4.69 0 2.38 0 0 Z " fill="#D5E0DF" transform="translate(7,3)"/>
<path d="M0 0 C4.62 0 9.24 0 14 0 C14 4.62 14 9.24 14 14 C18.62 14 23.24 14 28 14 C28 9.38 28 4.76 28 0 C32.62 0 37.24 0 42 0 C42 2.31 42 4.62 42 7 C44.31 7 46.62 7 49 7 C49 9.31 49 11.62 49 14 C51.64 14 54.28 14 57 14 C57 23.57 57 33.14 57 43 C59.31 43 61.62 43 64 43 C64 45.31 64 47.62 64 50 C61.69 50 59.38 50 57 50 C57 52.31 57 54.62 57 57 C59.31 57 61.62 57 64 57 C64 59.31 64 61.62 64 64 C61.69 64 59.38 64 57 64 C57 68.95 57 73.9 57 79 C54.36 79 51.72 79 49 79 C49 81.31 49 83.62 49 86 C44.38 86 39.76 86 35 86 C35 81.05 35 76.1 35 71 C32.69 71 30.38 71 28 71 C28 73.64 28 76.28 28 79 C23.38 79 18.76 79 14 79 C14 76.36 14 73.72 14 71 C11.69 71 9.38 71 7 71 C7 75.95 7 80.9 7 86 C2.38 86 -2.24 86 -7 86 C-7 83.69 -7 81.38 -7 79 C-9.64 79 -12.28 79 -15 79 C-15 74.05 -15 69.1 -15 64 C-17.31 64 -19.62 64 -22 64 C-22 61.69 -22 59.38 -22 57 C-19.69 57 -17.38 57 -15 57 C-15 54.69 -15 52.38 -15 50 C-17.31 50 -19.62 50 -22 50 C-22 47.69 -22 45.38 -22 43 C-19.69 43 -17.38 43 -15 43 C-15 33.43 -15 23.86 -15 14 C-12.36 14 -9.72 14 -7 14 C-7 11.69 -7 9.38 -7 7 C-4.69 7 -2.38 7 0 7 C0 4.69 0 2.38 0 0 Z " fill="#66534D" transform="translate(43,17)"/>
<path d="M0 0 C2.31 0 4.62 0 7 0 C7 35.31 7 70.62 7 107 C4.69 107 2.38 107 0 107 C0 109.31 0 111.62 0 114 C-37.62 114 -75.24 114 -114 114 C-114 111.69 -114 109.38 -114 107 C-111.69 107 -109.38 107 -107 107 C-107 92.81 -107 78.62 -107 64 C-104.69 64 -102.38 64 -100 64 C-100 66.31 -100 68.62 -100 71 C-97.69 71 -95.38 71 -93 71 C-93 75.95 -93 80.9 -93 86 C-90.36 86 -87.72 86 -85 86 C-85 88.31 -85 90.62 -85 93 C-80.38 93 -75.76 93 -71 93 C-71 88.05 -71 83.1 -71 78 C-68.69 78 -66.38 78 -64 78 C-64 80.64 -64 83.28 -64 86 C-59.38 86 -54.76 86 -50 86 C-50 83.36 -50 80.72 -50 78 C-47.69 78 -45.38 78 -43 78 C-43 82.95 -43 87.9 -43 93 C-38.38 93 -33.76 93 -29 93 C-29 90.69 -29 88.38 -29 86 C-26.36 86 -23.72 86 -21 86 C-21 81.05 -21 76.1 -21 71 C-18.69 71 -16.38 71 -14 71 C-14 68.69 -14 66.38 -14 64 C-11.69 64 -9.38 64 -7 64 C-7 54.76 -7 45.52 -7 36 C-4.69 36 -2.38 36 0 36 C0 24.12 0 12.24 0 0 Z " fill="#AAB0B3" transform="translate(121,10)"/>
<path d="M0 0 C2.31 0 4.62 0 7 0 C7 4.95 7 9.9 7 15 C16.24 15 25.48 15 35 15 C35 10.05 35 5.1 35 0 C37.31 0 39.62 0 42 0 C42 4.95 42 9.9 42 15 C44.31 15 46.62 15 49 15 C49 28.86 49 42.72 49 57 C42.07 57 35.14 57 28 57 C28 59.64 28 62.28 28 65 C23.38 65 18.76 65 14 65 C14 62.36 14 59.72 14 57 C7.07 57 0.14 57 -7 57 C-7 43.14 -7 29.28 -7 15 C-4.69 15 -2.38 15 0 15 C0 10.05 0 5.1 0 0 Z " fill="#D7742F" transform="translate(43,31)"/>
<path d="M0 0 C2.31 0 4.62 0 7 0 C7 4.62 7 9.24 7 14 C9.31 14 11.62 14 14 14 C14 11.69 14 9.38 14 7 C23.57 7 33.14 7 43 7 C43 9.31 43 11.62 43 14 C40.69 14 38.38 14 36 14 C36 16.31 36 18.62 36 21 C33.36 21 30.72 21 28 21 C28 30.57 28 40.14 28 50 C25.69 50 23.38 50 21 50 C21 52.31 21 54.62 21 57 C23.31 57 25.62 57 28 57 C28 59.31 28 61.62 28 64 C23.38 64 18.76 64 14 64 C14 78.19 14 92.38 14 107 C9.38 107 4.76 107 0 107 C0 71.69 0 36.38 0 0 Z " fill="#BDC7C7" transform="translate(0,10)"/>
<path d="M0 0 C11.88 0 23.76 0 36 0 C36 9.57 36 19.14 36 29 C33.69 29 31.38 29 29 29 C29 38.24 29 47.48 29 57 C24.38 57 19.76 57 15 57 C15 54.69 15 52.38 15 50 C17.31 50 19.62 50 22 50 C22 47.69 22 45.38 22 43 C19.69 43 17.38 43 15 43 C15 33.43 15 23.86 15 14 C12.36 14 9.72 14 7 14 C7 11.69 7 9.38 7 7 C4.69 7 2.38 7 0 7 C0 4.69 0 2.38 0 0 Z " fill="#BDC7C7" transform="translate(85,17)"/>
<path d="M0 0 C2.31 0 4.62 0 7 0 C7 4.62 7 9.24 7 14 C35.38 14 63.76 14 93 14 C93 9.38 93 4.76 93 0 C95.31 0 97.62 0 100 0 C100 4.62 100 9.24 100 14 C102.31 14 104.62 14 107 14 C107 16.31 107 18.62 107 21 C69.38 21 31.76 21 -7 21 C-7 18.69 -7 16.38 -7 14 C-4.69 14 -2.38 14 0 14 C0 9.38 0 4.76 0 0 Z " fill="#757580" transform="translate(14,103)"/>
<path d="M0 0 C37.62 0 75.24 0 114 0 C114 2.31 114 4.62 114 7 C76.38 7 38.76 7 0 7 C0 4.69 0 2.38 0 0 Z " fill="#8B8E94" transform="translate(7,3)"/>
<path d="M0 0 C2.31 0 4.62 0 7 0 C7 35.31 7 70.62 7 107 C4.69 107 2.38 107 0 107 C0 71.69 0 36.38 0 0 Z " fill="#8B8E94" transform="translate(121,10)"/>
<path d="M0 0 C2.31 0 4.62 0 7 0 C7 35.31 7 70.62 7 107 C4.69 107 2.38 107 0 107 C0 71.69 0 36.38 0 0 Z " fill="#8B8E94" transform="translate(0,10)"/>
<path d="M0 0 C2.64 0 5.28 0 8 0 C8 2.31 8 4.62 8 7 C10.31 7 12.62 7 15 7 C15 9.31 15 11.62 15 14 C12.69 14 10.38 14 8 14 C8 16.31 8 18.62 8 21 C10.31 21 12.62 21 15 21 C15 23.31 15 25.62 15 28 C12.69 28 10.38 28 8 28 C8 32.95 8 37.9 8 43 C5.36 43 2.72 43 0 43 C0 45.31 0 47.62 0 50 C-4.62 50 -9.24 50 -14 50 C-14 45.05 -14 40.1 -14 35 C-9.38 35 -4.76 35 0 35 C0 23.45 0 11.9 0 0 Z " fill="#BF6134" transform="translate(92,53)"/>
<path d="M0 0 C2.64 0 5.28 0 8 0 C8 11.55 8 23.1 8 35 C12.62 35 17.24 35 22 35 C22 39.95 22 44.9 22 50 C17.38 50 12.76 50 8 50 C8 47.69 8 45.38 8 43 C5.36 43 2.72 43 0 43 C0 38.05 0 33.1 0 28 C-2.31 28 -4.62 28 -7 28 C-7 25.69 -7 23.38 -7 21 C-4.69 21 -2.38 21 0 21 C0 18.69 0 16.38 0 14 C-2.31 14 -4.62 14 -7 14 C-7 11.69 -7 9.38 -7 7 C-4.69 7 -2.38 7 0 7 C0 4.69 0 2.38 0 0 Z " fill="#BF6134" transform="translate(28,53)"/>
<path d="M0 0 C4.62 0 9.24 0 14 0 C14 7.26 14 14.52 14 22 C11.69 22 9.38 22 7 22 C7 19.36 7 16.72 7 14 C4.69 14 2.38 14 0 14 C0 18.95 0 23.9 0 29 C-2.31 29 -4.62 29 -7 29 C-7 31.31 -7 33.62 -7 36 C-9.64 36 -12.28 36 -15 36 C-15 28.74 -15 21.48 -15 14 C-12.36 14 -9.72 14 -7 14 C-7 11.69 -7 9.38 -7 7 C-4.69 7 -2.38 7 0 7 C0 4.69 0 2.38 0 0 Z " fill="#A44E37" transform="translate(43,17)"/>
<path d="M0 0 C9.57 0 19.14 0 29 0 C29 2.31 29 4.62 29 7 C26.69 7 24.38 7 22 7 C22 9.31 22 11.62 22 14 C14.74 14 7.48 14 0 14 C0 16.64 0 19.28 0 22 C-2.31 22 -4.62 22 -7 22 C-7 17.05 -7 12.1 -7 7 C-4.69 7 -2.38 7 0 7 C0 4.69 0 2.38 0 0 Z " fill="#BDC7C7" transform="translate(14,17)"/>
<path d="M0 0 C16.5 0 33 0 50 0 C50 2.31 50 4.62 50 7 C35.81 7 21.62 7 7 7 C7 9.31 7 11.62 7 14 C4.69 14 2.38 14 0 14 C0 9.38 0 4.76 0 0 Z " fill="#E6F2F1" transform="translate(7,10)"/>
<path d="M0 0 C2.31 0 4.62 0 7 0 C7 16.5 7 33 7 50 C4.69 50 2.38 50 0 50 C0 33.5 0 17 0 0 Z " fill="#757580" transform="translate(121,67)"/>
<path d="M0 0 C2.31 0 4.62 0 7 0 C7 16.5 7 33 7 50 C4.69 50 2.38 50 0 50 C0 33.5 0 17 0 0 Z " fill="#757580" transform="translate(0,67)"/>
<path d="M0 0 C2.64 0 5.28 0 8 0 C8 2.31 8 4.62 8 7 C10.31 7 12.62 7 15 7 C15 9.31 15 11.62 15 14 C12.69 14 10.38 14 8 14 C8 16.31 8 18.62 8 21 C10.31 21 12.62 21 15 21 C15 23.31 15 25.62 15 28 C10.05 28 5.1 28 0 28 C0 18.76 0 9.52 0 0 Z " fill="#CF6D30" transform="translate(92,53)"/>
<path d="M0 0 C2.64 0 5.28 0 8 0 C8 9.24 8 18.48 8 28 C3.05 28 -1.9 28 -7 28 C-7 25.69 -7 23.38 -7 21 C-4.69 21 -2.38 21 0 21 C0 18.69 0 16.38 0 14 C-2.31 14 -4.62 14 -7 14 C-7 11.69 -7 9.38 -7 7 C-4.69 7 -2.38 7 0 7 C0 4.69 0 2.38 0 0 Z " fill="#CF6D30" transform="translate(28,53)"/>
<path d="M0 0 C2.31 0 4.62 0 7 0 C7 2.64 7 5.28 7 8 C11.62 8 16.24 8 21 8 C21 5.36 21 2.72 21 0 C23.31 0 25.62 0 28 0 C28 4.95 28 9.9 28 15 C18.76 15 9.52 15 0 15 C0 10.05 0 5.1 0 0 Z " fill="#F9F4F4" transform="translate(50,88)"/>
<path d="M0 0 C4.62 0 9.24 0 14 0 C14 2.64 14 5.28 14 8 C16.31 8 18.62 8 21 8 C21 10.31 21 12.62 21 15 C11.76 15 2.52 15 -7 15 C-7 12.69 -7 10.38 -7 8 C-4.69 8 -2.38 8 0 8 C0 5.36 0 2.72 0 0 Z " fill="#BF6134" transform="translate(57,31)"/>
<path d="M0 0 C4.95 0 9.9 0 15 0 C15 7.26 15 14.52 15 22 C12.36 22 9.72 22 7 22 C7 19.69 7 17.38 7 15 C4.69 15 2.38 15 0 15 C0 10.05 0 5.1 0 0 Z " fill="#A44E37" transform="translate(85,31)"/>
<path d="M0 0 C4.62 0 9.24 0 14 0 C14 4.62 14 9.24 14 14 C11.69 14 9.38 14 7 14 C7 16.31 7 18.62 7 21 C4.69 21 2.38 21 0 21 C0 14.07 0 7.14 0 0 Z " fill="#E68C37" transform="translate(57,46)"/>
<path d="M0 0 C4.62 0 9.24 0 14 0 C14 7.26 14 14.52 14 22 C11.69 22 9.38 22 7 22 C7 17.05 7 12.1 7 7 C4.69 7 2.38 7 0 7 C0 4.69 0 2.38 0 0 Z " fill="#66534D" transform="translate(43,17)"/>
<path d="M0 0 C9.24 0 18.48 0 28 0 C28 2.31 28 4.62 28 7 C18.76 7 9.52 7 0 7 C0 4.69 0 2.38 0 0 Z " fill="#A44E37" transform="translate(50,103)"/>
<path d="M0 0 C4.62 0 9.24 0 14 0 C14 6.93 14 13.86 14 21 C11.69 21 9.38 21 7 21 C7 16.38 7 11.76 7 7 C4.69 7 2.38 7 0 7 C0 4.69 0 2.38 0 0 Z " fill="#F9F4F4" transform="translate(78,60)"/>
<path d="M0 0 C4.62 0 9.24 0 14 0 C14 2.31 14 4.62 14 7 C11.69 7 9.38 7 7 7 C7 11.62 7 16.24 7 21 C4.69 21 2.38 21 0 21 C0 14.07 0 7.14 0 0 Z " fill="#F9F4F4" transform="translate(36,60)"/>
<path d="M0 0 C4.62 0 9.24 0 14 0 C14 4.62 14 9.24 14 14 C9.38 14 4.76 14 0 14 C0 9.38 0 4.76 0 0 Z " fill="#C7D1D1" transform="translate(57,17)"/>
<path d="M0 0 C4.62 0 9.24 0 14 0 C14 2.31 14 4.62 14 7 C11.69 7 9.38 7 7 7 C7 9.64 7 12.28 7 15 C4.69 15 2.38 15 0 15 C0 10.05 0 5.1 0 0 Z " fill="#8D7168" transform="translate(36,24)"/>
<path d="M0 0 C4.62 0 9.24 0 14 0 C14 2.31 14 4.62 14 7 C11.69 7 9.38 7 7 7 C7 9.64 7 12.28 7 15 C4.69 15 2.38 15 0 15 C0 10.05 0 5.1 0 0 Z " fill="#C7D1D1" transform="translate(7,24)"/>
<path d="M0 0 C4.62 0 9.24 0 14 0 C14 2.31 14 4.62 14 7 C11.69 7 9.38 7 7 7 C7 9.31 7 11.62 7 14 C4.69 14 2.38 14 0 14 C0 9.38 0 4.76 0 0 Z " fill="#D5E0DF" transform="translate(7,10)"/>
<path d="M0 0 C2.64 0 5.28 0 8 0 C8 4.95 8 9.9 8 15 C5.36 15 2.72 15 0 15 C0 10.05 0 5.1 0 0 Z " fill="#A44E37" transform="translate(92,81)"/>
<path d="M0 0 C2.64 0 5.28 0 8 0 C8 4.95 8 9.9 8 15 C5.36 15 2.72 15 0 15 C0 10.05 0 5.1 0 0 Z " fill="#A44E37" transform="translate(28,81)"/>
<path d="M0 0 C4.62 0 9.24 0 14 0 C14 2.64 14 5.28 14 8 C9.38 8 4.76 8 0 8 C0 5.36 0 2.72 0 0 Z " fill="#13151A" transform="translate(57,88)"/>
<path d="M0 0 C4.62 0 9.24 0 14 0 C14 2.64 14 5.28 14 8 C9.38 8 4.76 8 0 8 C0 5.36 0 2.72 0 0 Z " fill="#A44E37" transform="translate(57,31)"/>
<path d="M0 0 C2.31 0 4.62 0 7 0 C7 4.95 7 9.9 7 15 C4.69 15 2.38 15 0 15 C0 10.05 0 5.1 0 0 Z " fill="#F9F4F4" transform="translate(71,88)"/>
<path d="M0 0 C2.31 0 4.62 0 7 0 C7 4.95 7 9.9 7 15 C4.69 15 2.38 15 0 15 C0 10.05 0 5.1 0 0 Z " fill="#E7D9D3" transform="translate(78,31)"/>
<path d="M0 0 C2.31 0 4.62 0 7 0 C7 4.95 7 9.9 7 15 C4.69 15 2.38 15 0 15 C0 10.05 0 5.1 0 0 Z " fill="#E7D9D3" transform="translate(43,31)"/>
<path d="M0 0 C4.95 0 9.9 0 15 0 C15 2.31 15 4.62 15 7 C10.05 7 5.1 7 0 7 C0 4.69 0 2.38 0 0 Z " fill="#C7D1D1" transform="translate(28,17)"/>
<path d="M0 0 C2.31 0 4.62 0 7 0 C7 4.62 7 9.24 7 14 C4.69 14 2.38 14 0 14 C0 9.38 0 4.76 0 0 Z " fill="#A0A5A9" transform="translate(107,103)"/>
<path d="M0 0 C2.31 0 4.62 0 7 0 C7 4.62 7 9.24 7 14 C4.69 14 2.38 14 0 14 C0 9.38 0 4.76 0 0 Z " fill="#A0A5A9" transform="translate(14,103)"/>
<path d="M0 0 C2.31 0 4.62 0 7 0 C7 4.62 7 9.24 7 14 C4.69 14 2.38 14 0 14 C0 9.38 0 4.76 0 0 Z " fill="#AAB0B3" transform="translate(7,103)"/>
<path d="M0 0 C4.62 0 9.24 0 14 0 C14 2.31 14 4.62 14 7 C9.38 7 4.76 7 0 7 C0 4.69 0 2.38 0 0 Z " fill="#A44E37" transform="translate(78,96)"/>
<path d="M0 0 C4.62 0 9.24 0 14 0 C14 2.31 14 4.62 14 7 C9.38 7 4.76 7 0 7 C0 4.69 0 2.38 0 0 Z " fill="#E7D9D3" transform="translate(57,96)"/>
<path d="M0 0 C4.62 0 9.24 0 14 0 C14 2.31 14 4.62 14 7 C9.38 7 4.76 7 0 7 C0 4.69 0 2.38 0 0 Z " fill="#A44E37" transform="translate(36,96)"/>
<path d="M0 0 C2.31 0 4.62 0 7 0 C7 4.62 7 9.24 7 14 C4.69 14 2.38 14 0 14 C0 9.38 0 4.76 0 0 Z " fill="#13151A" transform="translate(78,67)"/>
<path d="M0 0 C4.62 0 9.24 0 14 0 C14 2.31 14 4.62 14 7 C9.38 7 4.76 7 0 7 C0 4.69 0 2.38 0 0 Z " fill="#BF6134" transform="translate(57,74)"/>
<path d="M0 0 C2.31 0 4.62 0 7 0 C7 4.62 7 9.24 7 14 C4.69 14 2.38 14 0 14 C0 9.38 0 4.76 0 0 Z " fill="#13151A" transform="translate(43,67)"/>
<path d="M0 0 C4.62 0 9.24 0 14 0 C14 2.31 14 4.62 14 7 C9.38 7 4.76 7 0 7 C0 4.69 0 2.38 0 0 Z " fill="#C7D1D1" transform="translate(100,67)"/>
<path d="M0 0 C4.62 0 9.24 0 14 0 C14 2.31 14 4.62 14 7 C9.38 7 4.76 7 0 7 C0 4.69 0 2.38 0 0 Z " fill="#BF6134" transform="translate(78,46)"/>
<path d="M0 0 C4.62 0 9.24 0 14 0 C14 2.31 14 4.62 14 7 C9.38 7 4.76 7 0 7 C0 4.69 0 2.38 0 0 Z " fill="#BF6134" transform="translate(36,46)"/>
<path d="M0 0 C2.64 0 5.28 0 8 0 C8 2.64 8 5.28 8 8 C5.36 8 2.72 8 0 8 C0 5.36 0 2.72 0 0 Z " fill="#66534D" transform="translate(92,31)"/>
<path d="M0 0 C2.64 0 5.28 0 8 0 C8 2.64 8 5.28 8 8 C5.36 8 2.72 8 0 8 C0 5.36 0 2.72 0 0 Z " fill="#66534D" transform="translate(28,31)"/>
<path d="M0 0 C2.64 0 5.28 0 8 0 C8 2.31 8 4.62 8 7 C5.36 7 2.72 7 0 7 C0 4.69 0 2.38 0 0 Z " fill="#BF6134" transform="translate(92,53)"/>
<path d="M0 0 C2.64 0 5.28 0 8 0 C8 2.31 8 4.62 8 7 C5.36 7 2.72 7 0 7 C0 4.69 0 2.38 0 0 Z " fill="#BF6134" transform="translate(28,53)"/>
<path d="M0 0 C2.31 0 4.62 0 7 0 C7 2.64 7 5.28 7 8 C4.69 8 2.38 8 0 8 C0 5.36 0 2.72 0 0 Z " fill="#AAB0B3" transform="translate(114,31)"/>
<path d="M0 0 C2.31 0 4.62 0 7 0 C7 2.64 7 5.28 7 8 C4.69 8 2.38 8 0 8 C0 5.36 0 2.72 0 0 Z " fill="#8D7168" transform="translate(85,31)"/>
<path d="M0 0 C2.31 0 4.62 0 7 0 C7 2.64 7 5.28 7 8 C4.69 8 2.38 8 0 8 C0 5.36 0 2.72 0 0 Z " fill="#8D7168" transform="translate(36,31)"/>
<path d="M0 0 C2.31 0 4.62 0 7 0 C7 2.64 7 5.28 7 8 C4.69 8 2.38 8 0 8 C0 5.36 0 2.72 0 0 Z " fill="#C7D1D1" transform="translate(21,31)"/>
<path d="M0 0 C2.31 0 4.62 0 7 0 C7 2.64 7 5.28 7 8 C4.69 8 2.38 8 0 8 C0 5.36 0 2.72 0 0 Z " fill="#D5E0DF" transform="translate(7,31)"/>
<path d="M0 0 C2.31 0 4.62 0 7 0 C7 2.31 7 4.62 7 7 C4.69 7 2.38 7 0 7 C0 4.69 0 2.38 0 0 Z " fill="#757580" transform="translate(107,103)"/>
<path d="M0 0 C2.31 0 4.62 0 7 0 C7 2.31 7 4.62 7 7 C4.69 7 2.38 7 0 7 C0 4.69 0 2.38 0 0 Z " fill="#757580" transform="translate(14,103)"/>
<path d="M0 0 C2.31 0 4.62 0 7 0 C7 2.31 7 4.62 7 7 C4.69 7 2.38 7 0 7 C0 4.69 0 2.38 0 0 Z " fill="#A44E37" transform="translate(100,74)"/>
<path d="M0 0 C2.31 0 4.62 0 7 0 C7 2.31 7 4.62 7 7 C4.69 7 2.38 7 0 7 C0 4.69 0 2.38 0 0 Z " fill="#E7D9D3" transform="translate(85,74)"/>
<path d="M0 0 C2.31 0 4.62 0 7 0 C7 2.31 7 4.62 7 7 C4.69 7 2.38 7 0 7 C0 4.69 0 2.38 0 0 Z " fill="#E7D9D3" transform="translate(36,74)"/>
<path d="M0 0 C2.31 0 4.62 0 7 0 C7 2.31 7 4.62 7 7 C4.69 7 2.38 7 0 7 C0 4.69 0 2.38 0 0 Z " fill="#A44E37" transform="translate(21,74)"/>
<path d="M0 0 C2.31 0 4.62 0 7 0 C7 2.31 7 4.62 7 7 C4.69 7 2.38 7 0 7 C0 4.69 0 2.38 0 0 Z " fill="#262A33" transform="translate(78,67)"/>
<path d="M0 0 C2.31 0 4.62 0 7 0 C7 2.31 7 4.62 7 7 C4.69 7 2.38 7 0 7 C0 4.69 0 2.38 0 0 Z " fill="#262A33" transform="translate(43,67)"/>
<path d="M0 0 C2.31 0 4.62 0 7 0 C7 2.31 7 4.62 7 7 C4.69 7 2.38 7 0 7 C0 4.69 0 2.38 0 0 Z " fill="#BF6134" transform="translate(100,60)"/>
<path d="M0 0 C2.31 0 4.62 0 7 0 C7 2.31 7 4.62 7 7 C4.69 7 2.38 7 0 7 C0 4.69 0 2.38 0 0 Z " fill="#E7D9D3" transform="translate(78,60)"/>
<path d="M0 0 C2.31 0 4.62 0 7 0 C7 2.31 7 4.62 7 7 C4.69 7 2.38 7 0 7 C0 4.69 0 2.38 0 0 Z " fill="#E7D9D3" transform="translate(43,60)"/>
<path d="M0 0 C2.31 0 4.62 0 7 0 C7 2.31 7 4.62 7 7 C4.69 7 2.38 7 0 7 C0 4.69 0 2.38 0 0 Z " fill="#BF6134" transform="translate(21,60)"/>
<path d="M0 0 C2.31 0 4.62 0 7 0 C7 2.31 7 4.62 7 7 C4.69 7 2.38 7 0 7 C0 4.69 0 2.38 0 0 Z " fill="#66534D" transform="translate(85,39)"/>
<path d="M0 0 C2.31 0 4.62 0 7 0 C7 2.31 7 4.62 7 7 C4.69 7 2.38 7 0 7 C0 4.69 0 2.38 0 0 Z " fill="#C7A3B9" transform="translate(78,39)"/>
<path d="M0 0 C2.31 0 4.62 0 7 0 C7 2.31 7 4.62 7 7 C4.69 7 2.38 7 0 7 C0 4.69 0 2.38 0 0 Z " fill="#A44E37" transform="translate(71,39)"/>
<path d="M0 0 C2.31 0 4.62 0 7 0 C7 2.31 7 4.62 7 7 C4.69 7 2.38 7 0 7 C0 4.69 0 2.38 0 0 Z " fill="#A44E37" transform="translate(50,39)"/>
<path d="M0 0 C2.31 0 4.62 0 7 0 C7 2.31 7 4.62 7 7 C4.69 7 2.38 7 0 7 C0 4.69 0 2.38 0 0 Z " fill="#C7A3B9" transform="translate(43,39)"/>
<path d="M0 0 C2.31 0 4.62 0 7 0 C7 2.31 7 4.62 7 7 C4.69 7 2.38 7 0 7 C0 4.69 0 2.38 0 0 Z " fill="#66534D" transform="translate(36,39)"/>
<path d="M0 0 C2.31 0 4.62 0 7 0 C7 2.31 7 4.62 7 7 C4.69 7 2.38 7 0 7 C0 4.69 0 2.38 0 0 Z " fill="#66534D" transform="translate(85,24)"/>
<path d="M0 0 C2.31 0 4.62 0 7 0 C7 2.31 7 4.62 7 7 C4.69 7 2.38 7 0 7 C0 4.69 0 2.38 0 0 Z " fill="#8D7168" transform="translate(78,24)"/>
<path d="M0 0 C2.31 0 4.62 0 7 0 C7 2.31 7 4.62 7 7 C4.69 7 2.38 7 0 7 C0 4.69 0 2.38 0 0 Z " fill="#66534D" transform="translate(36,24)"/>
<path d="M0 0 C2.31 0 4.62 0 7 0 C7 2.31 7 4.62 7 7 C4.69 7 2.38 7 0 7 C0 4.69 0 2.38 0 0 Z " fill="#BDC7C7" transform="translate(7,24)"/>
<path d="M0 0 C2.31 0 4.62 0 7 0 C7 2.31 7 4.62 7 7 C4.69 7 2.38 7 0 7 C0 4.69 0 2.38 0 0 Z " fill="#AAB0B3" transform="translate(107,17)"/>
<path d="M0 0 C2.31 0 4.62 0 7 0 C7 2.31 7 4.62 7 7 C4.69 7 2.38 7 0 7 C0 4.69 0 2.38 0 0 Z " fill="#BDC7C7" transform="translate(64,17)"/>
<path d="M0 0 C2.31 0 4.62 0 7 0 C7 2.31 7 4.62 7 7 C4.69 7 2.38 7 0 7 C0 4.69 0 2.38 0 0 Z " fill="#AAB0B3" transform="translate(14,17)"/>
<path d="M0 0 C2.31 0 4.62 0 7 0 C7 2.31 7 4.62 7 7 C4.69 7 2.38 7 0 7 C0 4.69 0 2.38 0 0 Z " fill="#E6F2F1" transform="translate(7,17)"/>
</svg>
