<?xml version="1.0" encoding="UTF-8"?>
<svg xmlns="http://www.w3.org/2000/svg" viewBox="0 0 109.31 103.43">
  <g>
    <path d="m103.33,0H5.93L.11,6c-.02,10.76-.03,21.53-.04,32.29-.02,19.72-.05,39.43-.07,59.15,2,1.99,3.99,3.99,5.99,5.99h97.3c2.01-2.01,4.02-4.02,6.02-6.03V5.98c-1.99-1.99-3.98-3.99-5.98-5.98Zm-.13,97.15H5.93V5.74c32.42.09,64.85.17,97.27.26v91.15Z"/>
    <path d="m23.8,23.74h7.02v-5.88h6.14v-5.87h11.48v12.01h12.38v-11.94h11.76v6.18h5.85v5.62h6.92v24.76h5.98v5.87h-6.14v6.13h6.01v5.75h-5.9v13.02h-6.88v5.87h-12v6h-23.75v-6.13h-11.87v-5.87h-7.02v-12.9h-5.88v-5.73h5.88v-6.02h-5.75v-6.11h5.75v-24.77Z"/>
  </g>
</svg>