<?xml version="1.0" encoding="UTF-8"?>
<svg xmlns="http://www.w3.org/2000/svg" viewBox="0.09 0 97.68 97.68">
  <g>
    <g>
      <path d="m23.45,6.98c-.65.16-1.1.75-1.09,1.4,0,.64.46,1.21,1.09,1.36,1.27.03,2.48-.03,3.75,0v7.09h-3.75c-.68.31-1.11.99-1.09,1.72.02.68.46,1.3,1.09,1.6h3.75v5.46c-.52.55-1.04,1.11-1.57,1.66h-5.53v-3.83c-.25-.68-.9-1.15-1.62-1.14-.69.01-1.32.49-1.57,1.14,0,1.28,0,2.55,0,3.83h-7.05v-3.83c-.12-.68-.71-1.18-1.4-1.19-.69,0-1.29.5-1.41,1.19v3.83c-1.99,0-3.99,0-5.98,0-.35-.42-.7-.83-1.06-1.25,0-8.34,0-16.68,0-25.02C.37.68.72.37,1.06.05h25.09c.34.53.71,1.06,1.05,1.6v5.34c-1.24,0-2.51,0-3.75,0Z"/>
      <path d="m33.69,80.64c.65-.16,1.1-.75,1.09-1.4,0-.64-.46-1.21-1.09-1.36-1.27-.03-2.48.03-3.75,0v-7.09h3.75c.68-.31,1.11-.99,1.09-1.72-.02-.68-.46-1.3-1.09-1.6h-3.75v-5.46c.52-.55,1.04-1.11,1.57-1.66h5.53v3.83c.25.68.9,1.15,1.62,1.14.69-.01,1.32-.49,1.57-1.14,0-1.28,0-2.55,0-3.83h7.05v3.83c.12.68.71,1.18,1.4,1.19.69,0,1.29-.5,1.41-1.19v-3.83c1.99,0,3.99,0,5.98,0,.35.42.7.83,1.06,1.25,0,8.34,0,16.68,0,25.02-.35.32-.69.64-1.04.95h-25.09c-.34-.53-.71-1.06-1.05-1.6v-5.34c1.24,0,2.51,0,3.75,0Z"/>
      <path d="m53.37,36.88c-.65.16-1.1.75-1.09,1.4,0,.64.46,1.21,1.09,1.36,1.27.03,2.48-.03,3.75,0v7.09h-3.75c-.68.31-1.11.99-1.09,1.72.02.68.46,1.3,1.09,1.6h3.75v5.46c-.52.55-1.04,1.11-1.57,1.66h-5.53v-3.83c-.25-.68-.9-1.15-1.62-1.14-.69.01-1.32.49-1.57,1.14,0,1.28,0,2.55,0,3.83h-7.05v-3.83c-.12-.68-.71-1.18-1.4-1.19-.69,0-1.29.5-1.41,1.19v3.83c-1.99,0-3.99,0-5.98,0-.35-.42-.7-.83-1.06-1.25,0-8.34,0-16.68,0-25.02.35-.32.69-.64,1.04-.95h25.09c.34.53.71,1.06,1.05,1.6v5.34c-1.24,0-2.51,0-3.75,0Z"/>
      <path d="m6.93,64.11c.16.65.75,1.1,1.4,1.09.64,0,1.21-.46,1.36-1.09.03-1.27-.03-2.48,0-3.75h7.09v3.75c.31.68.99,1.11,1.72,1.09.68-.02,1.3-.46,1.6-1.09v-3.75h5.46c.55.52,1.11,1.04,1.66,1.57v5.53h-3.83c-.68.25-1.15.9-1.14,1.62.01.69.49,1.32,1.14,1.57,1.28,0,2.55,0,3.83,0v7.05h-3.83c-.68.12-1.18.71-1.19,1.4,0,.69.5,1.29,1.19,1.41h3.83c0,1.99,0,3.99,0,5.98-.42.35-.83.7-1.25,1.06-8.34,0-16.68,0-25.02,0-.32-.35-.64-.69-.95-1.04v-25.09c.53-.34,1.06-.71,1.6-1.05h5.34c0,1.24,0,2.51,0,3.75Z"/>
      <path d="m80.3,23.43c-.16-.65-.75-1.1-1.4-1.09-.64,0-1.21.46-1.36,1.09-.03,1.27.03,2.48,0,3.75h-7.09v-3.75c-.31-.68-.99-1.11-1.72-1.09-.68.02-1.3.46-1.6,1.09v3.75h-5.46c-.55-.52-1.11-1.04-1.66-1.57v-5.53h3.83c.68-.25,1.15-.9,1.14-1.62-.01-.69-.49-1.32-1.14-1.57-1.28,0-2.55,0-3.83,0v-7.05h3.83c.68-.12,1.18-.71,1.19-1.4,0-.69-.5-1.29-1.19-1.41h-3.83c0-1.99,0-3.99,0-5.98.42-.35.83-.7,1.25-1.06C69.6,0,77.94,0,86.28,0c.32.35.64.69.95,1.04v25.09c-.53.34-1.06.71-1.6,1.05h-5.34c0-1.24,0-2.51,0-3.75Z"/>
      <path d="m17.1,57.17h-7.15v-3.81c-.12-.66-.7-1.14-1.36-1.13-.65.01-1.22.5-1.32,1.15v3.79H1.07c-.35-.53-.7-1.06-1.05-1.6v-23.97c.52-.55,1.04-1.11,1.57-1.66h5.53v3.83c.25.68.9,1.15,1.62,1.14.69-.01,1.32-.49,1.57-1.14,0-1.28,0-2.55,0-3.83h7.05v3.83c.12.68.71,1.18,1.4,1.19.69,0,1.29-.5,1.41-1.19v-3.83c1.99,0,3.99,0,5.98,0,.35.42.7.83,1.06,1.25,0,8.34,0,16.68,0,25.02-.35.32-.69.64-1.04.95-.96,0-1.93,0-2.91,0-.98,0-1.96-.02-2.91,0,0-1.26,0-2.54,0-3.81-.29-.67-.96-1.15-1.68-1.13-.67.02-1.28.5-1.55,1.13-.01,1.22.01,2.59,0,3.81Z"/>
      <path d="m63.78,50.24c.65-.16,1.1-.75,1.09-1.4,0-.64-.46-1.21-1.09-1.36-1.27-.03-2.48.03-3.75,0v-7.09h3.75c.68-.31,1.11-.99,1.09-1.72-.02-.68-.46-1.3-1.09-1.6h-3.75v-5.46c.52-.55,1.04-1.11,1.57-1.66h5.53v3.83c.25.68.9,1.15,1.62,1.14.69-.01,1.32-.49,1.57-1.14,0-1.28,0-2.55,0-3.83h7.05v3.83c.12.68.71,1.18,1.4,1.19.69,0,1.29-.5,1.41-1.19v-3.83c1.99,0,3.99,0,5.98,0,.35.42.7.83,1.06,1.25,0,8.34,0,16.68,0,25.02-.35.32-.69.64-1.04.95h-25.09c-.34-.53-.71-1.06-1.05-1.6v-5.34c1.24,0,2.51,0,3.75,0Z"/>
      <path d="m29.92,17.15v-3.57c0-1.19,0-2.38,0-3.57h3.81c.66-.12,1.14-.7,1.13-1.36-.01-.65-.5-1.22-1.15-1.32h-3.79v-3.1c0-1.03,0-2.07,0-3.1.53-.35,1.06-.7,1.6-1.05,7.99,0,15.98,0,23.97,0,.55.52,1.11,1.04,1.66,1.57v5.53h-3.83c-.68.25-1.15.9-1.14,1.62.01.69.49,1.32,1.14,1.57,1.28,0,2.55,0,3.83,0v7.05h-3.83c-.68.12-1.18.71-1.19,1.4,0,.69.5,1.29,1.19,1.41h3.83c0,1.99,0,3.99,0,5.98-.42.35-.83.7-1.25,1.06-8.34,0-16.68,0-25.02,0-.32-.35-.64-.69-.95-1.04,0-.96,0-1.93,0-2.91,0-.98.02-1.96,0-2.91,1.26,0,2.54,0,3.81,0,.67-.29,1.15-.96,1.13-1.68-.02-.67-.5-1.28-1.13-1.55-1.22-.01-2.59.01-3.81,0Z"/>
      <path d="m61.13,80.07v-1.62c2.88-2.92,5.79-5.85,8.74-8.79,2.92-2.91,5.83-5.78,8.73-8.61h1.47c5.87,5.81,11.74,11.62,17.62,17.43v1.66c-5.82,5.82-11.65,11.64-17.47,17.46h-1.63c-5.82-5.84-11.64-11.68-17.46-17.52Z"/>
    </g>
  </g>
</svg>