<svg xmlns="http://www.w3.org/2000/svg" viewBox="0 0 119.4 122.88" color="currentColor" fill="currentColor">
  <path d="M83.91 26.34a43.8 43.8 0 0 0-22.68-7 42 42 0 0 0-24.42 7 50 50 0 0 0-7.46 6.09 42.07 42.07 0 0 0-5.47 54.1A49 49 0 0 0 30 94a41.83 41.83 0 0 0 18.6 10.9 42.77 42.77 0 0 0 21.77.13 47.2 47.2 0 0 0 19.2-9.62 38 38 0 0 0 11.14-16 37 37 0 0 0 1.64-6.18 38.4 38.4 0 0 0 .61-6.69 8.24 8.24 0 1 1 16.47 0 55 55 0 0 1-.8 9.53A54.77 54.77 0 0 1 100.26 108a63.6 63.6 0 0 1-25.92 13.1 59.1 59.1 0 0 1-30.1-.25 58.45 58.45 0 0 1-26-15.17 66 66 0 0 1-8.1-9.86 58.56 58.56 0 0 1 7.54-75 65.7 65.7 0 0 1 9.92-8.09 58.4 58.4 0 0 1 33.95-9.85 60.5 60.5 0 0 1 32.5 10.42l-.47-4.11A8.25 8.25 0 1 1 110 7.32l2.64 22.77a8.24 8.24 0 0 1-6.73 9l-23.38 4.22a8.23 8.23 0 1 1-2.9-16.21z"/>
</svg>
