<svg xmlns="http://www.w3.org/2000/svg" xml:space="preserve" viewBox="0 0 100 100">
  <path d="M50.004 91.672a41.9 41.9 0 0 0 27.141-10.141 41.92 41.92 0 0 0 14.07-25.324 4.17 4.17 0 0 0-3.508-4.738 4.165 4.165 0 0 0-4.734 3.507 33.33 33.33 0 0 1-11.86 20.828 33.338 33.338 0 1 1-26.102-58.77 4.163 4.163 0 0 0 3.505-4.737 4.163 4.163 0 0 0-4.739-3.504 41.676 41.676 0 0 0-28.786 63.82 41.67 41.67 0 0 0 35.013 19.059"/>
  <path d="M55.969 17.191c1.828.336 3.625.816 5.375 1.445.45.164.93.25 1.41.25a4.168 4.168 0 0 0 1.414-8.082A42 42 0 0 0 57.461 9a4.17 4.17 0 0 0-4.96 3.328 4.17 4.17 0 0 0 3.468 4.867zm18.863-.66a4.17 4.17 0 0 0-5.871.832 4.15 4.15 0 0 0-.77 3.117 4.16 4.16 0 0 0 1.672 2.742 33.5 33.5 0 0 1 6.864 6.84 4.16 4.16 0 0 0 2.746 1.684 4.15 4.15 0 0 0 3.129-.781 4.16 4.16 0 0 0 .796-5.891 41.9 41.9 0 0 0-8.566-8.543m6.508 22.063a33 33 0 0 1 1.457 5.363 4.17 4.17 0 0 0 4.094 3.414q.383 0 .754-.07a4.16 4.16 0 0 0 3.347-4.848 42 42 0 0 0-1.816-6.707 4.168 4.168 0 0 0-7.836 2.848M45.836 25v25c0 1.105.441 2.164 1.223 2.945s1.84 1.223 2.945 1.223h25.883c2.3 0 4.164-1.867 4.164-4.168s-1.863-4.168-4.164-4.168H54.172V25a4.17 4.17 0 0 0-4.168-4.168A4.17 4.17 0 0 0 45.836 25"/>
</svg>
